<svg width="25" height="24" viewBox="0 0 25 24" fill="none" xmlns="http://www.w3.org/2000/svg">
<g clip-path="url(#clip0_564_6754)">
<path d="M13.5496 8C13.5496 5.79 11.7484 4 9.52461 4C7.3008 4 5.49961 5.79 5.49961 8C5.49961 10.21 7.3008 12 9.52461 12C11.7484 12 13.5496 10.21 13.5496 8ZM11.5371 8C11.5371 9.1 10.6315 10 9.52461 10C8.41773 10 7.51211 9.1 7.51211 8C7.51211 6.9 8.41773 6 9.52461 6C10.6315 6 11.5371 6.9 11.5371 8ZM1.47461 18V20H17.5746V18C17.5746 15.34 12.2113 14 9.52461 14C6.83792 14 1.47461 15.34 1.47461 18ZM3.48711 18C3.68836 17.29 6.80773 16 9.52461 16C12.2314 16 15.3407 17.28 15.5621 18H3.48711ZM20.5934 15V12H23.6121V10H20.5934V7H18.5809V10H15.5621V12H18.5809V15H20.5934Z" fill="#4B4B4B"/>
</g>
<defs>
<clipPath id="clip0_564_6754">
<rect width="24.15" height="24" fill="white" transform="translate(0.46875)"/>
</clipPath>
</defs>
</svg>
