<svg width="25" height="24" viewBox="0 0 25 24" fill="none" xmlns="http://www.w3.org/2000/svg">
<g clip-path="url(#clip0_564_6766)">
<path d="M12.5566 2C7.02227 2 2.49414 6.5 2.49414 12C2.49414 17.5 7.02227 22 12.5566 22C18.091 22 22.6191 17.5 22.6191 12C22.6191 6.5 18.091 2 12.5566 2ZM4.50664 12C4.50664 7.6 8.12914 4 12.5566 4C14.3679 4 16.0785 4.6 17.4873 5.7L6.21727 16.9C5.11039 15.5 4.50664 13.8 4.50664 12ZM12.5566 20C10.7454 20 9.03476 19.4 7.62602 18.3L18.896 7.1C20.0029 8.5 20.6066 10.2 20.6066 12C20.6066 16.4 16.9841 20 12.5566 20Z" fill="#4B4B4B"/>
</g>
<defs>
<clipPath id="clip0_564_6766">
<rect width="24.15" height="24" fill="white" transform="translate(0.481445)"/>
</clipPath>
</defs>
</svg>
