<svg width="30" height="30" viewBox="0 0 30 30" fill="none" xmlns="http://www.w3.org/2000/svg">
<path d="M15.296 2.92969C22.2236 2.92969 27.4681 8.60958 27.4681 15.1079C27.4681 22.6444 21.321 27.3227 15.2716 27.3227C13.2713 27.3227 11.0516 26.7852 9.2709 25.7348C8.64887 25.3561 8.12442 25.0752 7.45362 25.295L4.98992 26.0279C4.3679 26.2234 3.80686 25.7348 3.98981 25.0752L4.80698 22.339C4.94114 21.9604 4.91674 21.5573 4.7216 21.2397C3.6727 19.3098 3.07507 17.1966 3.07507 15.1445C3.07507 8.71951 8.2098 2.92969 15.296 2.92969ZM20.8698 13.5932C20.0038 13.5932 19.3086 14.2895 19.3086 15.1567C19.3086 16.0118 20.0038 16.7202 20.8698 16.7202C21.7357 16.7202 22.4309 16.0118 22.4309 15.1567C22.4309 14.2895 21.7357 13.5932 20.8698 13.5932ZM15.2472 13.5932C14.3934 13.581 13.686 14.2895 13.686 15.1445C13.686 16.0118 14.3812 16.708 15.2472 16.7202C16.1131 16.7202 16.8083 16.0118 16.8083 15.1567C16.8083 14.2895 16.1131 13.5932 15.2472 13.5932ZM9.62459 13.5932C8.75864 13.5932 8.06344 14.2895 8.06344 15.1567C8.06344 16.0118 8.77084 16.7202 9.62459 16.7202C10.4905 16.708 11.1857 16.0118 11.1857 15.1567C11.1857 14.2895 10.4905 13.5932 9.62459 13.5932Z" fill="#5D7285"/>
</svg>
