<svg width="30" height="31" viewBox="0 0 30 31" fill="none" xmlns="http://www.w3.org/2000/svg">
<path d="M20.3832 3.38623C24.1507 3.38623 26.2485 5.55721 26.2485 9.27714V21.8761C26.2485 25.657 24.1507 27.7792 20.3832 27.7792H10.1613C6.45358 27.7792 4.2948 25.657 4.2948 21.8761V9.27714C4.2948 5.55721 6.45358 3.38623 10.1613 3.38623H20.3832ZM10.4906 20.1442C10.1247 20.1076 9.77103 20.2784 9.57588 20.5955C9.38074 20.9004 9.38074 21.3029 9.57588 21.62C9.77103 21.9249 10.1247 22.1079 10.4906 22.0591H20.0527C20.5393 22.0103 20.9064 21.5944 20.9064 21.1077C20.9064 20.6077 20.5393 20.193 20.0527 20.1442H10.4906ZM20.0527 14.5814H10.4906C9.96495 14.5814 9.53929 15.0095 9.53929 15.5339C9.53929 16.0584 9.96495 16.4853 10.4906 16.4853H20.0527C20.5771 16.4853 21.004 16.0584 21.004 15.5339C21.004 15.0095 20.5771 14.5814 20.0527 14.5814ZM14.1362 9.0576H10.4906V9.0698C9.96495 9.0698 9.53929 9.49668 9.53929 10.0211C9.53929 10.5456 9.96495 10.9725 10.4906 10.9725H14.1362C14.6618 10.9725 15.0887 10.5456 15.0887 10.0077C15.0887 9.48448 14.6618 9.0576 14.1362 9.0576Z" fill="#5D7285"/>
</svg>
