<svg width="25" height="24" viewBox="0 0 25 24" fill="none" xmlns="http://www.w3.org/2000/svg">
<g clip-path="url(#clip0_564_6755)">
<path d="M20.5939 4V16H8.51894V4H20.5939ZM20.5939 2H8.51894C7.41207 2 6.50644 2.9 6.50644 4V16C6.50644 17.1 7.41207 18 8.51894 18H20.5939C21.7008 18 22.6064 17.1 22.6064 16V4C22.6064 2.9 21.7008 2 20.5939 2ZM12.0408 11.67L13.7414 13.93L16.2369 10.83L19.5877 15H9.52519L12.0408 11.67ZM2.48145 6V20C2.48145 21.1 3.38707 22 4.49395 22H18.5814V20H4.49395V6H2.48145Z" fill="#4B4B4B"/>
</g>
<defs>
<clipPath id="clip0_564_6755">
<rect width="24.15" height="24" fill="white" transform="translate(0.46875)"/>
</clipPath>
</defs>
</svg>
