<svg width="30" height="31" viewBox="0 0 30 31" fill="none" xmlns="http://www.w3.org/2000/svg">
<path d="M20.9616 3.31241C22.7161 3.20276 24.4462 3.81195 25.7499 5.00597C26.9439 6.30965 27.5531 8.03976 27.4557 9.80643V21.1862C27.5653 22.9528 26.9439 24.683 25.7621 25.9866C24.4584 27.1807 22.7161 27.7899 20.9616 27.6802H9.58175C7.81507 27.7899 6.08494 27.1807 4.78125 25.9866C3.58722 24.683 2.97802 22.9528 3.08768 21.1862V9.80643C2.97802 8.03976 3.58722 6.30965 4.78125 5.00597C6.08494 3.81195 7.81507 3.20276 9.58175 3.31241H20.9616ZM20.6448 8.88045C19.8894 8.12505 18.671 8.12505 17.9156 8.88045L17.0993 9.70895C16.9774 9.83079 16.9774 10.0379 17.0993 10.1598C17.0993 10.1598 17.1232 10.1835 17.1658 10.2258L17.4654 10.5239C17.6388 10.6964 17.8552 10.9118 18.0725 11.1284L18.8092 11.8648C18.963 12.0192 19.065 12.1227 19.0731 12.1336C19.2071 12.2798 19.2924 12.4747 19.2924 12.694C19.2924 13.1326 18.9391 13.4981 18.4882 13.4981C18.2811 13.4981 18.0862 13.4129 17.9522 13.2788L15.9174 11.2563C15.82 11.1588 15.6494 11.1588 15.5519 11.2563L9.74014 17.068C9.33807 17.4701 9.10657 18.0062 9.09439 18.5788L9.02128 21.4664C9.02128 21.6248 9.07002 21.771 9.17968 21.8807C9.28933 21.9903 9.43554 22.0512 9.59393 22.0512H12.4572C13.042 22.0512 13.6025 21.8197 14.0289 21.4055L22.2287 13.1814C22.972 12.426 22.972 11.2076 22.2287 10.4644L20.6448 8.88045Z" fill="#5D7285"/>
</svg>
