<svg width="45" height="45" viewBox="0 0 45 45" fill="none" xmlns="http://www.w3.org/2000/svg">
<path d="M23.1463 10.4731C24.0686 10.4731 24.9037 10.9854 25.3649 11.7416C25.5893 12.1075 25.7388 12.5587 25.7014 13.0344C25.6765 13.4003 25.7887 13.7662 25.9881 14.1077C26.6238 15.1444 28.0323 15.5347 29.1291 14.9493C30.3631 14.2419 31.9211 14.6687 32.6316 15.8762L33.4667 17.3154C34.1896 18.5228 33.7908 20.0718 32.5443 20.767C31.4849 21.389 31.1109 22.7672 31.7466 23.8161C31.9461 24.1454 32.1704 24.4259 32.5194 24.5967C32.9557 24.8284 33.2922 25.1943 33.529 25.5602C33.9902 26.3164 33.9528 27.2433 33.5041 28.0605L32.6316 29.5241C32.1704 30.3047 31.3104 30.7925 30.4254 30.7925C29.9892 30.7925 29.503 30.6705 29.1042 30.4266C28.7801 30.2193 28.4062 30.1461 28.0073 30.1461C26.7734 30.1461 25.7388 31.1584 25.7014 32.3659C25.7014 33.7685 24.5547 34.8661 23.1213 34.8661H21.4262C19.9803 34.8661 18.8336 33.7685 18.8336 32.3659C18.8087 31.1584 17.7741 30.1461 16.5402 30.1461C16.1289 30.1461 15.7549 30.2193 15.4433 30.4266C15.0445 30.6705 14.5459 30.7925 14.1221 30.7925C13.2247 30.7925 12.3646 30.3047 11.9035 29.5241L11.0434 28.0605C10.5822 27.2677 10.5573 26.3164 11.0185 25.5602C11.2179 25.1943 11.5918 24.8284 12.0156 24.5967C12.3646 24.4259 12.589 24.1454 12.8009 23.8161C13.4241 22.7672 13.0502 21.389 11.9907 20.767C10.7567 20.0718 10.3579 18.5228 11.0683 17.3154L11.9035 15.8762C12.6264 14.6687 14.172 14.2419 15.4184 14.9493C16.5028 15.5347 17.9112 15.1444 18.5469 14.1077C18.7464 13.7662 18.8585 13.4003 18.8336 13.0344C18.8087 12.5587 18.9458 12.1075 19.1826 11.7416C19.6438 10.9854 20.4789 10.4975 21.3888 10.4731H23.1463ZM22.2862 19.2302C20.3293 19.2302 18.7464 20.767 18.7464 22.6818C18.7464 24.5967 20.3293 26.1213 22.2862 26.1213C24.2431 26.1213 25.7887 24.5967 25.7887 22.6818C25.7887 20.767 24.2431 19.2302 22.2862 19.2302Z" fill="#5D7285"/>
</svg>
