<svg width="45" height="44" viewBox="0 0 45 44" fill="none" xmlns="http://www.w3.org/2000/svg">
<path d="M27.9616 9.76944C29.7161 9.65979 31.4462 10.269 32.7499 11.463C33.9439 12.7667 34.5531 14.4968 34.4557 16.2635V27.6432C34.5653 29.4099 33.9439 31.14 32.7621 32.4437C31.4584 33.6377 29.7161 34.2469 27.9616 34.1372H16.5817C14.8151 34.2469 13.0849 33.6377 11.7813 32.4437C10.5872 31.14 9.97802 29.4099 10.0877 27.6432V16.2635C9.97802 14.4968 10.5872 12.7667 11.7813 11.463C13.0849 10.269 14.8151 9.65979 16.5817 9.76944H27.9616ZM27.6448 15.3375C26.8894 14.5821 25.671 14.5821 24.9156 15.3375L24.0993 16.166C23.9774 16.2878 23.9774 16.495 24.0993 16.6168C24.0993 16.6168 24.1232 16.6406 24.1658 16.6829L24.4654 16.9809C24.6388 17.1534 24.8552 17.3688 25.0725 17.5854L25.8092 18.3218C25.963 18.4763 26.065 18.5798 26.0731 18.5906C26.2071 18.7368 26.2924 18.9317 26.2924 19.151C26.2924 19.5897 25.9391 19.9552 25.4882 19.9552C25.2811 19.9552 25.0862 19.8699 24.9522 19.7359L22.9174 17.7133C22.82 17.6159 22.6494 17.6159 22.5519 17.7133L16.7401 23.5251C16.3381 23.9271 16.1066 24.4632 16.0944 25.0359L16.0213 27.9234C16.0213 28.0818 16.07 28.228 16.1797 28.3377C16.2893 28.4474 16.4355 28.5083 16.5939 28.5083H19.4572C20.042 28.5083 20.6025 28.2768 21.0289 27.8625L29.2287 19.6384C29.972 18.883 29.972 17.6646 29.2287 16.9214L27.6448 15.3375Z" fill="#5D7285"/>
</svg>
