<svg width="45" height="44" viewBox="0 0 45 44" fill="none" xmlns="http://www.w3.org/2000/svg">
<path d="M27.5573 9.84326C31.6911 9.84326 34.4681 12.7437 34.4681 17.0596V27.0199C34.4681 31.3358 31.6911 34.2363 27.5561 34.2363H16.9858C12.8521 34.2363 10.0751 31.3358 10.0751 27.0199V17.0596C10.0751 12.7437 12.8521 9.84326 16.9858 9.84326H27.5573ZM28.9023 22.7106C27.5949 21.895 26.5855 23.0404 26.3133 23.4067C26.0508 23.7604 25.8251 24.1505 25.5872 24.5407C25.0059 25.5036 24.3399 26.6138 23.187 27.2595C21.5117 28.1871 20.2399 27.3325 19.325 26.7107C18.9815 26.4791 18.648 26.2601 18.3156 26.1141C17.4963 25.7604 16.7592 26.1632 15.6652 27.5527C15.0912 28.279 14.5222 28.9989 13.9457 29.7164C13.6011 30.1456 13.6833 30.8076 14.1481 31.0946C14.8901 31.5515 15.7952 31.797 16.8181 31.797H27.097C27.6771 31.797 28.2584 31.7177 28.8128 31.5364C30.0613 31.1286 31.0523 30.1947 31.5698 28.9612C32.0065 27.924 32.2186 26.6654 31.8102 25.6182C31.6741 25.2708 31.4705 24.9473 31.1847 24.6628C30.4354 23.919 29.7351 23.2242 28.9023 22.7106ZM18.0014 14.7219C16.3199 14.7219 14.9537 16.09 14.9537 17.771C14.9537 19.452 16.3199 20.8201 18.0014 20.8201C19.6816 20.8201 21.0491 19.452 21.0491 17.771C21.0491 16.09 19.6816 14.7219 18.0014 14.7219Z" fill="#5D7285"/>
</svg>
