<svg width="205" height="206" viewBox="0 0 205 206" fill="none" xmlns="http://www.w3.org/2000/svg">
<path d="M42.229 176.153C39.5481 179.411 34.7104 179.899 31.6607 176.983C16.5551 162.539 6.17871 143.771 2.02293 123.165C-2.63788 100.054 0.810707 76.043 11.7875 55.1782C22.7644 34.3134 40.5983 17.8704 62.284 8.62029C81.6198 0.372506 102.964 -1.70715 123.423 2.55953C127.554 3.42096 129.893 7.6839 128.726 11.739C127.559 15.7941 123.33 18.1005 119.188 17.2931C102.12 13.9656 84.3812 15.8071 68.2793 22.6755C49.8265 30.5466 34.6512 44.5383 25.3107 62.2927C15.9703 80.047 13.0358 100.479 17.0018 120.144C20.4626 137.304 28.9929 152.966 41.4033 165.147C44.4147 168.102 44.91 172.895 42.229 176.153Z" fill="#01A2F9"/>
<path d="M115.861 8.98726C116.455 4.80974 120.333 1.87633 124.454 2.7801C137.972 5.7443 150.778 11.4218 162.082 19.4971C175.462 29.0557 186.347 41.6934 193.816 56.3432C201.285 70.9929 205.12 87.2248 204.997 103.668C204.874 120.112 200.797 136.285 193.109 150.821C185.421 165.357 174.349 177.831 160.827 187.188C147.305 196.545 131.73 202.512 115.417 204.584C99.1039 206.656 82.5318 204.773 67.0997 199.094C54.0624 194.296 42.162 186.908 32.1029 177.403C29.0359 174.505 29.2781 169.649 32.3965 166.807C35.5148 163.964 40.3259 164.216 43.4305 167.073C51.8112 174.788 61.6411 180.803 72.3771 184.754C85.5087 189.587 99.6102 191.189 113.491 189.426C127.372 187.662 140.625 182.585 152.132 174.623C163.638 166.66 173.059 156.046 179.601 143.677C186.143 131.308 189.612 117.546 189.717 103.554C189.822 89.5618 186.558 75.7498 180.203 63.284C173.847 50.8181 164.585 40.0645 153.199 31.9308C143.891 25.281 133.386 20.542 122.292 17.9572C118.183 16.9997 115.267 13.1648 115.861 8.98726Z" fill="#6B7280"/>
<path d="M50.4585 122.678C48.451 122.678 46.6612 122.308 45.0892 121.57C43.5267 120.831 42.2862 119.813 41.3676 118.516C40.4491 117.218 39.9709 115.731 39.933 114.055H45.8989C45.9652 115.182 46.4387 116.096 47.3193 116.797C48.2 117.498 49.2464 117.848 50.4585 117.848C51.4245 117.848 52.2767 117.635 53.0154 117.209C53.7635 116.773 54.3459 116.172 54.7625 115.405C55.1887 114.628 55.4017 113.738 55.4017 112.734C55.4017 111.712 55.1839 110.812 54.7483 110.035C54.3222 109.259 53.7303 108.653 52.9727 108.217C52.2152 107.782 51.3487 107.559 50.3733 107.55C49.521 107.55 48.6924 107.725 47.8875 108.075C47.0921 108.426 46.4718 108.904 46.0267 109.51L40.558 108.53L41.9358 93.1889H59.7199V98.2173H47.0068L46.254 105.504H46.4244C46.9358 104.785 47.7076 104.188 48.7398 103.714C49.772 103.241 50.9273 103.004 52.2057 103.004C53.9576 103.004 55.5201 103.416 56.8932 104.24C58.2663 105.064 59.3506 106.196 60.146 107.635C60.9415 109.065 61.3345 110.713 61.325 112.578C61.3345 114.538 60.8799 116.281 59.9614 117.805C59.0523 119.321 57.7786 120.514 56.1404 121.385C54.5116 122.247 52.6176 122.678 50.4585 122.678ZM69.9756 122.28L64.0381 100.462H70.1602L73.5409 115.121H73.7398L77.2625 100.462H83.271L86.8506 115.035H87.0352L90.3591 100.462H96.4671L90.5438 122.28H84.1375L80.3875 108.558H80.1176L76.3676 122.28H69.9756ZM103.232 122.649C102.294 122.649 101.49 122.318 100.817 121.655C100.154 120.982 99.8229 120.178 99.8229 119.24C99.8229 118.312 100.154 117.517 100.817 116.854C101.49 116.191 102.294 115.859 103.232 115.859C104.141 115.859 104.937 116.191 105.618 116.854C106.3 117.517 106.641 118.312 106.641 119.24C106.641 119.865 106.48 120.438 106.158 120.959C105.846 121.47 105.434 121.882 104.922 122.195C104.411 122.498 103.848 122.649 103.232 122.649ZM103.232 107.365C102.294 107.365 101.49 107.034 100.817 106.371C100.154 105.708 99.8229 104.903 99.8229 103.956C99.8229 103.028 100.154 102.237 100.817 101.584C101.49 100.921 102.294 100.589 103.232 100.589C104.141 100.589 104.937 100.921 105.618 101.584C106.3 102.237 106.641 103.028 106.641 103.956C106.641 104.59 106.48 105.168 106.158 105.689C105.846 106.2 105.434 106.607 104.922 106.91C104.411 107.213 103.848 107.365 103.232 107.365ZM120.81 122.28V117.848L131.165 108.26C132.046 107.408 132.785 106.641 133.381 105.959C133.987 105.277 134.446 104.609 134.759 103.956C135.071 103.293 135.228 102.578 135.228 101.811C135.228 100.959 135.034 100.225 134.645 99.6093C134.257 98.9843 133.727 98.5061 133.054 98.1747C132.382 97.8338 131.62 97.6633 130.767 97.6633C129.877 97.6633 129.101 97.8432 128.438 98.2031C127.775 98.5629 127.264 99.079 126.904 99.7514C126.544 100.424 126.364 101.224 126.364 102.152H120.526C120.526 100.249 120.957 98.5961 121.819 97.1946C122.68 95.793 123.888 94.7088 125.441 93.9417C126.994 93.1747 128.784 92.7911 130.81 92.7911C132.893 92.7911 134.707 93.1605 136.25 93.8991C137.803 94.6283 139.011 95.6415 139.873 96.9389C140.734 98.2362 141.165 99.723 141.165 101.399C141.165 102.498 140.947 103.582 140.512 104.652C140.086 105.722 139.323 106.91 138.225 108.217C137.126 109.515 135.578 111.072 133.58 112.891L129.333 117.053V117.251H141.549V122.28H120.81ZM154.102 122.635C152.445 122.635 150.944 122.209 149.599 121.356C148.264 120.495 147.203 119.231 146.417 117.564C145.641 115.888 145.253 113.833 145.253 111.399C145.253 108.899 145.655 106.821 146.46 105.163C147.265 103.497 148.335 102.251 149.67 101.428C151.015 100.594 152.487 100.178 154.088 100.178C155.309 100.178 156.327 100.386 157.142 100.803C157.966 101.21 158.629 101.721 159.13 102.337C159.642 102.943 160.03 103.539 160.295 104.126H160.48V93.1889H166.517V122.28H160.551V118.785H160.295C160.011 119.392 159.609 119.993 159.088 120.589C158.576 121.177 157.909 121.664 157.085 122.053C156.271 122.441 155.276 122.635 154.102 122.635ZM156.02 117.82C156.995 117.82 157.819 117.554 158.491 117.024C159.173 116.484 159.694 115.731 160.054 114.766C160.423 113.8 160.608 112.668 160.608 111.371C160.608 110.073 160.428 108.946 160.068 107.99C159.708 107.034 159.187 106.295 158.505 105.774C157.824 105.253 156.995 104.993 156.02 104.993C155.025 104.993 154.187 105.263 153.505 105.803C152.824 106.342 152.307 107.09 151.957 108.047C151.607 109.003 151.432 110.111 151.432 111.371C151.432 112.64 151.607 113.762 151.957 114.737C152.317 115.703 152.833 116.461 153.505 117.01C154.187 117.55 155.025 117.82 156.02 117.82Z" fill="#1F384C"/>
</svg>
