<svg width="695" height="349" viewBox="0 0 695 349" fill="none" xmlns="http://www.w3.org/2000/svg">
<circle cx="507" cy="9.5" r="5" fill="#FB896B"/>
<path d="M518.28 15L521.752 4.92H523.117L526.589 15H525.518L522.221 5.494H522.627L519.351 15H518.28ZM519.827 12.557V11.591H525.035V12.557H519.827ZM530.989 15.21C530.228 15.21 529.584 15.0397 529.057 14.699C528.53 14.3583 528.128 13.8893 527.853 13.292C527.582 12.69 527.442 11.9993 527.433 11.22C527.442 10.4267 527.587 9.73133 527.867 9.134C528.147 8.532 528.551 8.06533 529.078 7.734C529.605 7.398 530.245 7.23 530.996 7.23C531.761 7.23 532.426 7.41667 532.991 7.79C533.56 8.16333 533.95 8.67433 534.16 9.323L533.152 9.645C532.975 9.19233 532.692 8.84233 532.305 8.595C531.922 8.343 531.484 8.217 530.989 8.217C530.434 8.217 529.974 8.34533 529.61 8.602C529.246 8.854 528.975 9.20633 528.798 9.659C528.621 10.1117 528.53 10.632 528.525 11.22C528.534 12.1253 528.744 12.8533 529.155 13.404C529.566 13.95 530.177 14.223 530.989 14.223C531.502 14.223 531.939 14.1063 532.298 13.873C532.662 13.635 532.937 13.2897 533.124 12.837L534.16 13.145C533.88 13.817 533.469 14.3303 532.928 14.685C532.387 15.035 531.74 15.21 530.989 15.21ZM541.065 15V11.143C541.065 10.723 541.025 10.338 540.946 9.988C540.867 9.63333 540.738 9.32533 540.561 9.064C540.388 8.798 540.162 8.59267 539.882 8.448C539.607 8.30333 539.271 8.231 538.874 8.231C538.51 8.231 538.188 8.294 537.908 8.42C537.633 8.546 537.399 8.728 537.208 8.966C537.021 9.19933 536.879 9.484 536.781 9.82C536.683 10.156 536.634 10.5387 536.634 10.968L535.906 10.807C535.906 10.0323 536.041 9.38133 536.312 8.854C536.583 8.32667 536.956 7.92767 537.432 7.657C537.908 7.38633 538.454 7.251 539.07 7.251C539.523 7.251 539.917 7.321 540.253 7.461C540.594 7.601 540.881 7.79 541.114 8.028C541.352 8.266 541.543 8.539 541.688 8.847C541.833 9.15033 541.938 9.47467 542.003 9.82C542.068 10.1607 542.101 10.5013 542.101 10.842V15H541.065ZM535.598 15V4.92H536.529V10.611H536.634V15H535.598ZM544.058 6.005V4.85H545.087V6.005H544.058ZM544.058 15V7.44H545.087V15H544.058ZM550.384 15.21C549.647 15.21 549.007 15.0467 548.466 14.72C547.929 14.3933 547.512 13.9337 547.213 13.341C546.914 12.7483 546.765 12.053 546.765 11.255C546.765 10.429 546.912 9.715 547.206 9.113C547.5 8.511 547.913 8.04667 548.445 7.72C548.982 7.39333 549.614 7.23 550.342 7.23C551.089 7.23 551.726 7.40267 552.253 7.748C552.78 8.08867 553.179 8.57867 553.45 9.218C553.721 9.85733 553.844 10.6203 553.821 11.507H552.771V11.143C552.752 10.163 552.54 9.42333 552.134 8.924C551.733 8.42467 551.145 8.175 550.37 8.175C549.558 8.175 548.935 8.43867 548.501 8.966C548.072 9.49333 547.857 10.2447 547.857 11.22C547.857 12.172 548.072 12.9117 548.501 13.439C548.935 13.9617 549.549 14.223 550.342 14.223C550.883 14.223 551.355 14.0993 551.756 13.852C552.162 13.6 552.482 13.2383 552.715 12.767L553.674 13.138C553.375 13.796 552.934 14.307 552.351 14.671C551.772 15.0303 551.117 15.21 550.384 15.21ZM547.493 11.507V10.646H553.268V11.507H547.493ZM557.145 15L554.401 7.44H555.444L557.677 13.656L559.896 7.44H560.953L558.209 15H557.145ZM565.136 15.21C564.399 15.21 563.759 15.0467 563.218 14.72C562.681 14.3933 562.264 13.9337 561.965 13.341C561.666 12.7483 561.517 12.053 561.517 11.255C561.517 10.429 561.664 9.715 561.958 9.113C562.252 8.511 562.665 8.04667 563.197 7.72C563.734 7.39333 564.366 7.23 565.094 7.23C565.841 7.23 566.478 7.40267 567.005 7.748C567.532 8.08867 567.931 8.57867 568.202 9.218C568.473 9.85733 568.596 10.6203 568.573 11.507H567.523V11.143C567.504 10.163 567.292 9.42333 566.886 8.924C566.485 8.42467 565.897 8.175 565.122 8.175C564.31 8.175 563.687 8.43867 563.253 8.966C562.824 9.49333 562.609 10.2447 562.609 11.22C562.609 12.172 562.824 12.9117 563.253 13.439C563.687 13.9617 564.301 14.223 565.094 14.223C565.635 14.223 566.107 14.0993 566.508 13.852C566.914 13.6 567.234 13.2383 567.467 12.767L568.426 13.138C568.127 13.796 567.686 14.307 567.103 14.671C566.524 15.0303 565.869 15.21 565.136 15.21ZM562.245 11.507V10.646H568.02V11.507H562.245ZM573.059 15.21C572.355 15.21 571.753 15.035 571.253 14.685C570.754 14.3303 570.371 13.852 570.105 13.25C569.839 12.648 569.706 11.969 569.706 11.213C569.706 10.4617 569.837 9.785 570.098 9.183C570.364 8.581 570.745 8.105 571.239 7.755C571.734 7.405 572.327 7.23 573.017 7.23C573.727 7.23 574.324 7.40267 574.809 7.748C575.295 8.09333 575.661 8.567 575.908 9.169C576.16 9.76633 576.286 10.4477 576.286 11.213C576.286 11.9643 576.163 12.6433 575.915 13.25C575.668 13.852 575.304 14.3303 574.823 14.685C574.343 15.035 573.755 15.21 573.059 15.21ZM573.164 14.251C573.701 14.251 574.144 14.1203 574.494 13.859C574.844 13.5977 575.106 13.2383 575.278 12.781C575.451 12.319 575.537 11.7963 575.537 11.213C575.537 10.6203 575.451 10.0977 575.278 9.645C575.106 9.18767 574.844 8.83067 574.494 8.574C574.149 8.31733 573.713 8.189 573.185 8.189C572.644 8.189 572.196 8.322 571.841 8.588C571.487 8.854 571.223 9.21567 571.05 9.673C570.882 10.1303 570.798 10.6437 570.798 11.213C570.798 11.787 570.885 12.305 571.057 12.767C571.235 13.2243 571.498 13.586 571.848 13.852C572.198 14.118 572.637 14.251 573.164 14.251ZM575.537 15V9.309H575.425V4.92H576.461V15H575.537Z" fill="#787486"/>
<circle cx="628" cy="9.5" r="5" fill="#6956E5"/>
<path d="M642.661 15V5.907H639.14V4.92H647.211V5.907H643.69V15H642.661ZM649.512 15.21C648.943 15.21 648.464 15.1073 648.077 14.902C647.694 14.6967 647.407 14.4237 647.216 14.083C647.025 13.7423 646.929 13.3713 646.929 12.97C646.929 12.5593 647.011 12.2093 647.174 11.92C647.342 11.626 647.568 11.3857 647.853 11.199C648.142 11.0123 648.476 10.87 648.854 10.772C649.237 10.6787 649.659 10.597 650.121 10.527C650.588 10.4523 651.043 10.3893 651.486 10.338C651.934 10.282 652.326 10.2283 652.662 10.177L652.298 10.401C652.312 9.65433 652.167 9.10133 651.864 8.742C651.561 8.38267 651.033 8.203 650.282 8.203C649.764 8.203 649.325 8.31967 648.966 8.553C648.611 8.78633 648.362 9.155 648.217 9.659L647.216 9.365C647.389 8.68833 647.736 8.16333 648.259 7.79C648.782 7.41667 649.461 7.23 650.296 7.23C650.987 7.23 651.572 7.36067 652.053 7.622C652.538 7.87867 652.881 8.252 653.082 8.742C653.175 8.96133 653.236 9.20633 653.264 9.477C653.292 9.74767 653.306 10.023 653.306 10.303V15H652.389V13.103L652.655 13.215C652.398 13.8637 651.999 14.3583 651.458 14.699C650.917 15.0397 650.268 15.21 649.512 15.21ZM649.631 14.321C650.112 14.321 650.532 14.2347 650.891 14.062C651.25 13.8893 651.54 13.6537 651.759 13.355C651.978 13.0517 652.121 12.711 652.186 12.333C652.242 12.0903 652.272 11.8243 652.277 11.535C652.282 11.241 652.284 11.0217 652.284 10.877L652.676 11.08C652.326 11.1267 651.946 11.1733 651.535 11.22C651.129 11.2667 650.728 11.3203 650.331 11.381C649.939 11.4417 649.584 11.514 649.267 11.598C649.052 11.6587 648.845 11.745 648.644 11.857C648.443 11.9643 648.278 12.109 648.147 12.291C648.021 12.473 647.958 12.6993 647.958 12.97C647.958 13.1893 648.012 13.4017 648.119 13.607C648.231 13.8123 648.408 13.9827 648.651 14.118C648.898 14.2533 649.225 14.321 649.631 14.321ZM655.128 15V7.44H656.052V9.26L655.87 9.022C655.954 8.798 656.064 8.59267 656.199 8.406C656.335 8.21467 656.482 8.05833 656.64 7.937C656.836 7.76433 657.065 7.63367 657.326 7.545C657.588 7.45167 657.851 7.398 658.117 7.384C658.383 7.36533 658.626 7.384 658.845 7.44V8.406C658.57 8.336 658.269 8.31967 657.942 8.357C657.616 8.39433 657.315 8.525 657.039 8.749C656.787 8.945 656.598 9.18067 656.472 9.456C656.346 9.72667 656.262 10.016 656.22 10.324C656.178 10.6273 656.157 10.9283 656.157 11.227V15H655.128ZM662.903 18.57C662.516 18.57 662.133 18.5117 661.755 18.395C661.382 18.283 661.036 18.1033 660.719 17.856C660.402 17.6133 660.136 17.296 659.921 16.904L660.852 16.386C661.062 16.806 661.356 17.107 661.734 17.289C662.117 17.4757 662.506 17.569 662.903 17.569C663.449 17.569 663.89 17.4663 664.226 17.261C664.567 17.0603 664.814 16.7617 664.968 16.365C665.122 15.9683 665.197 15.4737 665.192 14.881V12.865H665.311V7.44H666.228V14.895C666.228 15.1097 666.221 15.315 666.207 15.511C666.198 15.7117 666.177 15.9077 666.144 16.099C666.055 16.6637 665.871 17.128 665.591 17.492C665.316 17.856 664.952 18.1267 664.499 18.304C664.051 18.4813 663.519 18.57 662.903 18.57ZM662.833 15.21C662.128 15.21 661.526 15.035 661.027 14.685C660.528 14.3303 660.145 13.852 659.879 13.25C659.613 12.648 659.48 11.969 659.48 11.213C659.48 10.4617 659.611 9.785 659.872 9.183C660.138 8.581 660.518 8.105 661.013 7.755C661.508 7.405 662.1 7.23 662.791 7.23C663.5 7.23 664.098 7.40267 664.583 7.748C665.068 8.09333 665.435 8.567 665.682 9.169C665.934 9.76633 666.06 10.4477 666.06 11.213C666.06 11.9643 665.936 12.6433 665.689 13.25C665.442 13.852 665.078 14.3303 664.597 14.685C664.116 15.035 663.528 15.21 662.833 15.21ZM662.938 14.251C663.475 14.251 663.918 14.1203 664.268 13.859C664.618 13.5977 664.879 13.2383 665.052 12.781C665.225 12.319 665.311 11.7963 665.311 11.213C665.311 10.6203 665.225 10.0977 665.052 9.645C664.879 9.18767 664.618 8.83067 664.268 8.574C663.923 8.31733 663.486 8.189 662.959 8.189C662.418 8.189 661.97 8.322 661.615 8.588C661.26 8.854 660.997 9.21567 660.824 9.673C660.656 10.1303 660.572 10.6437 660.572 11.213C660.572 11.787 660.658 12.305 660.831 12.767C661.008 13.2243 661.272 13.586 661.622 13.852C661.972 14.118 662.411 14.251 662.938 14.251ZM671.384 15.21C670.647 15.21 670.007 15.0467 669.466 14.72C668.929 14.3933 668.512 13.9337 668.213 13.341C667.914 12.7483 667.765 12.053 667.765 11.255C667.765 10.429 667.912 9.715 668.206 9.113C668.5 8.511 668.913 8.04667 669.445 7.72C669.982 7.39333 670.614 7.23 671.342 7.23C672.089 7.23 672.726 7.40267 673.253 7.748C673.78 8.08867 674.179 8.57867 674.45 9.218C674.721 9.85733 674.844 10.6203 674.821 11.507H673.771V11.143C673.752 10.163 673.54 9.42333 673.134 8.924C672.733 8.42467 672.145 8.175 671.37 8.175C670.558 8.175 669.935 8.43867 669.501 8.966C669.072 9.49333 668.857 10.2447 668.857 11.22C668.857 12.172 669.072 12.9117 669.501 13.439C669.935 13.9617 670.549 14.223 671.342 14.223C671.883 14.223 672.355 14.0993 672.756 13.852C673.162 13.6 673.482 13.2383 673.715 12.767L674.674 13.138C674.375 13.796 673.934 14.307 673.351 14.671C672.772 15.0303 672.117 15.21 671.384 15.21ZM668.493 11.507V10.646H674.268V11.507H668.493ZM680.491 15C680.066 15.0887 679.646 15.1237 679.231 15.105C678.82 15.0863 678.451 14.9977 678.125 14.839C677.803 14.6803 677.558 14.433 677.39 14.097C677.254 13.817 677.18 13.5347 677.166 13.25C677.156 12.9607 677.152 12.6317 677.152 12.263V5.34H678.174V12.221C678.174 12.5383 678.176 12.8043 678.181 13.019C678.19 13.229 678.239 13.4157 678.328 13.579C678.496 13.8917 678.762 14.0783 679.126 14.139C679.494 14.1997 679.949 14.1857 680.491 14.097V15ZM675.535 8.322V7.44H680.491V8.322H675.535Z" fill="#787486"/>
<path d="M5.12784 59.2727V68H4.07102V60.3807H4.01989L1.8892 61.7955V60.7216L4.07102 59.2727H5.12784ZM7.63778 68V67.233L10.5185 64.0795C10.8565 63.7102 11.1349 63.3892 11.3537 63.1165C11.5724 62.8409 11.7344 62.5824 11.8395 62.3409C11.9474 62.0966 12.0014 61.8409 12.0014 61.5739C12.0014 61.267 11.9276 61.0014 11.7798 60.777C11.6349 60.5526 11.4361 60.3793 11.1832 60.2571C10.9304 60.1349 10.6463 60.0739 10.331 60.0739C9.99574 60.0739 9.70312 60.1435 9.45312 60.2827C9.20597 60.419 9.0142 60.6108 8.87784 60.858C8.74432 61.1051 8.67756 61.3949 8.67756 61.7273H7.67188C7.67188 61.2159 7.78977 60.767 8.02557 60.3807C8.26136 59.9943 8.58239 59.6932 8.98864 59.4773C9.39773 59.2614 9.85653 59.1534 10.3651 59.1534C10.8764 59.1534 11.3295 59.2614 11.7244 59.4773C12.1193 59.6932 12.429 59.9844 12.6534 60.3509C12.8778 60.7173 12.9901 61.125 12.9901 61.5739C12.9901 61.8949 12.9318 62.2088 12.8153 62.5156C12.7017 62.8196 12.5028 63.1591 12.2188 63.5341C11.9375 63.9062 11.5469 64.3608 11.0469 64.8977L9.08665 66.9943V67.0625H13.1435V68H7.63778Z" fill="#6B7280"/>
<path d="M4.89347 101.273V110H3.83665V102.381H3.78551L1.65483 103.795V102.722L3.83665 101.273H4.89347ZM10.25 110.119C9.60795 110.119 9.06108 109.945 8.60938 109.595C8.15767 109.243 7.8125 108.733 7.57386 108.065C7.33523 107.395 7.21591 106.585 7.21591 105.636C7.21591 104.693 7.33523 103.888 7.57386 103.22C7.81534 102.55 8.16193 102.038 8.61364 101.686C9.06818 101.331 9.61364 101.153 10.25 101.153C10.8864 101.153 11.4304 101.331 11.8821 101.686C12.3366 102.038 12.6832 102.55 12.9219 103.22C13.1634 103.888 13.2841 104.693 13.2841 105.636C13.2841 106.585 13.1648 107.395 12.9261 108.065C12.6875 108.733 12.3423 109.243 11.8906 109.595C11.4389 109.945 10.892 110.119 10.25 110.119ZM10.25 109.182C10.8864 109.182 11.3807 108.875 11.733 108.261C12.0852 107.648 12.2614 106.773 12.2614 105.636C12.2614 104.881 12.1804 104.237 12.0185 103.706C11.8594 103.175 11.6293 102.77 11.3281 102.491C11.0298 102.213 10.6705 102.074 10.25 102.074C9.61932 102.074 9.12642 102.385 8.77131 103.007C8.41619 103.626 8.23864 104.503 8.23864 105.636C8.23864 106.392 8.31818 107.034 8.47727 107.562C8.63636 108.091 8.86506 108.493 9.16335 108.768C9.46449 109.044 9.8267 109.182 10.25 109.182Z" fill="#6B7280"/>
<path d="M10.3043 152.119C9.71911 152.119 9.20206 152.016 8.7532 151.808C8.30717 151.598 7.95916 151.31 7.70916 150.943C7.45916 150.574 7.33558 150.153 7.33842 149.682C7.33558 149.312 7.40803 148.972 7.55575 148.659C7.70348 148.344 7.90518 148.081 8.16087 147.871C8.41939 147.658 8.70774 147.523 9.02592 147.466V147.415C8.60831 147.307 8.27592 147.072 8.02876 146.712C7.78161 146.348 7.65945 145.935 7.66229 145.472C7.65945 145.028 7.77166 144.632 7.99893 144.283C8.22621 143.933 8.53871 143.658 8.93643 143.456C9.337 143.254 9.79297 143.153 10.3043 143.153C10.81 143.153 11.2617 143.254 11.6594 143.456C12.0572 143.658 12.3697 143.933 12.5969 144.283C12.8271 144.632 12.9435 145.028 12.9464 145.472C12.9435 145.935 12.8171 146.348 12.5671 146.712C12.32 147.072 11.9918 147.307 11.5827 147.415V147.466C11.8981 147.523 12.1822 147.658 12.435 147.871C12.6879 148.081 12.8896 148.344 13.0401 148.659C13.1907 148.972 13.2674 149.312 13.2702 149.682C13.2674 150.153 13.1396 150.574 12.8867 150.943C12.6367 151.31 12.2887 151.598 11.8427 151.808C11.3995 152.016 10.8867 152.119 10.3043 152.119ZM10.3043 151.182C10.6992 151.182 11.0401 151.118 11.3271 150.99C11.614 150.862 11.8356 150.682 11.9918 150.449C12.1481 150.216 12.2276 149.943 12.2305 149.631C12.2276 149.301 12.1424 149.01 11.9748 148.757C11.8072 148.504 11.5785 148.305 11.2887 148.161C11.0018 148.016 10.6737 147.943 10.3043 147.943C9.93217 147.943 9.59979 148.016 9.30717 148.161C9.0174 148.305 8.78871 148.504 8.62109 148.757C8.45632 149.01 8.37536 149.301 8.3782 149.631C8.37536 149.943 8.45064 150.216 8.60405 150.449C8.7603 150.682 8.98331 150.862 9.27308 150.99C9.56286 151.118 9.90661 151.182 10.3043 151.182ZM10.3043 147.04C10.6168 147.04 10.8938 146.977 11.1353 146.852C11.3796 146.727 11.5714 146.553 11.7106 146.328C11.8498 146.104 11.9208 145.841 11.9237 145.54C11.9208 145.244 11.8512 144.987 11.7148 144.768C11.5785 144.547 11.3896 144.376 11.1481 144.257C10.9066 144.135 10.6254 144.074 10.3043 144.074C9.97763 144.074 9.69212 144.135 9.4478 144.257C9.20348 144.376 9.01456 144.547 8.88104 144.768C8.74751 144.987 8.68217 145.244 8.68501 145.54C8.68217 145.841 8.74893 146.104 8.8853 146.328C9.0245 146.553 9.21626 146.727 9.46058 146.852C9.7049 146.977 9.98615 147.04 10.3043 147.04Z" fill="#6B7280"/>
<path d="M10.3129 194.119C9.9549 194.114 9.59695 194.045 9.23899 193.915C8.88104 193.784 8.55433 193.564 8.25888 193.254C7.96342 192.942 7.72621 192.52 7.54723 191.989C7.36825 191.455 7.27876 190.784 7.27876 189.977C7.27876 189.205 7.35121 188.52 7.49609 187.923C7.64098 187.324 7.85121 186.82 8.12678 186.411C8.40234 185.999 8.73473 185.686 9.12393 185.473C9.51598 185.26 9.95774 185.153 10.4492 185.153C10.9379 185.153 11.3725 185.251 11.7532 185.447C12.1367 185.641 12.4492 185.911 12.6907 186.257C12.9322 186.604 13.0884 187.003 13.1594 187.455H12.1197C12.0231 187.062 11.8356 186.737 11.5572 186.479C11.2788 186.22 10.9094 186.091 10.4492 186.091C9.77308 186.091 9.24041 186.385 8.85121 186.973C8.46484 187.561 8.27024 188.386 8.2674 189.449H8.33558C8.49467 189.207 8.68359 189.001 8.90234 188.831C9.12393 188.658 9.36825 188.524 9.6353 188.43C9.90234 188.337 10.185 188.29 10.4833 188.29C10.9833 188.29 11.4407 188.415 11.8555 188.665C12.2702 188.912 12.6026 189.254 12.8526 189.692C13.1026 190.126 13.2276 190.625 13.2276 191.188C13.2276 191.727 13.1069 192.222 12.8654 192.67C12.6239 193.116 12.2844 193.472 11.8469 193.736C11.4123 193.997 10.9009 194.125 10.3129 194.119ZM10.3129 193.182C10.6708 193.182 10.9918 193.092 11.2759 192.913C11.5629 192.734 11.7887 192.494 11.9535 192.193C12.1211 191.892 12.2049 191.557 12.2049 191.188C12.2049 190.827 12.1239 190.499 11.962 190.203C11.8029 189.905 11.5827 189.668 11.3015 189.491C11.0231 189.315 10.7049 189.227 10.3469 189.227C10.0771 189.227 9.82564 189.281 9.59268 189.389C9.35973 189.494 9.15518 189.639 8.97905 189.824C8.80575 190.009 8.66939 190.22 8.56996 190.459C8.47053 190.695 8.42081 190.943 8.42081 191.205C8.42081 191.551 8.50178 191.875 8.66371 192.176C8.82848 192.477 9.05291 192.72 9.337 192.905C9.62393 193.089 9.94922 193.182 10.3129 193.182Z" fill="#6B7280"/>
<path d="M6.99964 234.21V233.341L10.8349 227.273H11.4656V228.619H11.0394L8.14169 233.205V233.273H13.3065V234.21H6.99964ZM11.1076 236V233.946V233.541V227.273H12.1133V236H11.1076Z" fill="#6B7280"/>
<path d="M7.63778 278V277.233L10.5185 274.08C10.8565 273.71 11.1349 273.389 11.3537 273.116C11.5724 272.841 11.7344 272.582 11.8395 272.341C11.9474 272.097 12.0014 271.841 12.0014 271.574C12.0014 271.267 11.9276 271.001 11.7798 270.777C11.6349 270.553 11.4361 270.379 11.1832 270.257C10.9304 270.135 10.6463 270.074 10.331 270.074C9.99574 270.074 9.70312 270.143 9.45312 270.283C9.20597 270.419 9.0142 270.611 8.87784 270.858C8.74432 271.105 8.67756 271.395 8.67756 271.727H7.67188C7.67188 271.216 7.78977 270.767 8.02557 270.381C8.26136 269.994 8.58239 269.693 8.98864 269.477C9.39773 269.261 9.85653 269.153 10.3651 269.153C10.8764 269.153 11.3295 269.261 11.7244 269.477C12.1193 269.693 12.429 269.984 12.6534 270.351C12.8778 270.717 12.9901 271.125 12.9901 271.574C12.9901 271.895 12.9318 272.209 12.8153 272.516C12.7017 272.82 12.5028 273.159 12.2188 273.534C11.9375 273.906 11.5469 274.361 11.0469 274.898L9.08665 276.994V277.062H13.1435V278H7.63778Z" fill="#6B7280"/>
<path d="M10.25 320.119C9.60795 320.119 9.06108 319.945 8.60938 319.595C8.15767 319.243 7.8125 318.733 7.57386 318.065C7.33523 317.395 7.21591 316.585 7.21591 315.636C7.21591 314.693 7.33523 313.888 7.57386 313.22C7.81534 312.55 8.16193 312.038 8.61364 311.686C9.06818 311.331 9.61364 311.153 10.25 311.153C10.8864 311.153 11.4304 311.331 11.8821 311.686C12.3366 312.038 12.6832 312.55 12.9219 313.22C13.1634 313.888 13.2841 314.693 13.2841 315.636C13.2841 316.585 13.1648 317.395 12.9261 318.065C12.6875 318.733 12.3423 319.243 11.8906 319.595C11.4389 319.945 10.892 320.119 10.25 320.119ZM10.25 319.182C10.8864 319.182 11.3807 318.875 11.733 318.261C12.0852 317.648 12.2614 316.773 12.2614 315.636C12.2614 314.881 12.1804 314.237 12.0185 313.706C11.8594 313.175 11.6293 312.77 11.3281 312.491C11.0298 312.213 10.6705 312.074 10.25 312.074C9.61932 312.074 9.12642 312.385 8.77131 313.007C8.41619 313.626 8.23864 314.503 8.23864 315.636C8.23864 316.392 8.31818 317.034 8.47727 317.562C8.63636 318.091 8.86506 318.493 9.16335 318.768C9.46449 319.044 9.8267 319.182 10.25 319.182Z" fill="#6B7280"/>
<line x1="34" y1="65.5" x2="679" y2="65.5" stroke="#F3F4F6"/>
<line x1="34" y1="107.5" x2="679" y2="107.5" stroke="#F3F4F6"/>
<line x1="34" y1="149.5" x2="679" y2="149.5" stroke="#F3F4F6"/>
<line x1="34" y1="191.5" x2="679" y2="191.5" stroke="#F3F4F6"/>
<line x1="34" y1="233.5" x2="679" y2="233.5" stroke="#F3F4F6"/>
<line x1="34" y1="275.5" x2="679" y2="275.5" stroke="#F3F4F6"/>
<line x1="34" y1="317.5" x2="679" y2="317.5" stroke="#F3F4F6"/>
<path d="M428 168V315" stroke="#E2E4E9" stroke-dasharray="4 4"/>
<path d="M34 215.311C44.2095 212.81 68.1117 205.81 82.0447 197.809C99.4609 187.808 103.665 175.307 161.318 187.808C218.972 200.309 209.964 194.309 229.182 197.809C244.556 200.61 274.824 218.311 288.036 226.812C298.246 234.646 323.229 243.813 341.486 217.811C364.307 185.308 399.14 167.807 418.358 177.808C437.575 187.808 475.411 213.31 488.022 214.31C500.634 215.31 505.439 214.31 554.084 191.308C593 172.907 653.576 193.309 679 205.81" stroke="#FB896B" stroke-width="4" stroke-linecap="round"/>
<path d="M34 255.311C44.2095 252.81 64.567 271.001 78.5 263C95.9162 252.999 107.846 202.999 165.5 215.5C223.154 228.001 218.282 216 237.5 219.5C252.874 222.3 274.824 258.311 288.036 266.812C298.246 274.646 319.243 271.502 337.5 245.5C360.321 212.997 412 219.5 432.5 219.5C454.164 219.5 483.388 195 496 196C508.612 197 549.355 248.002 598 225C636.916 206.598 653.576 233.309 679 245.81" stroke="#6956E5" stroke-width="4" stroke-linecap="round"/>
<g filter="url(#filter0_f_564_12425)">
<path d="M34 265.31C44.2095 262.81 64.567 281.001 78.5 273C95.9162 262.999 107.846 212.999 165.5 225.5C223.154 238.001 218.282 225.999 237.5 229.5C252.874 232.3 274.824 268.311 288.036 276.812C298.246 284.646 319.243 281.502 337.5 255.5C360.321 222.997 413.282 219.499 432.5 229.5C451.718 239.501 483.388 205 496 206C508.612 207 549.355 258.002 598 235C636.916 216.598 653.576 243.308 679 255.81" stroke="#BEB5F4" stroke-width="4" stroke-linecap="round"/>
</g>
<g filter="url(#filter1_f_564_12425)">
<path d="M34 222.311C44.2095 219.81 68.1117 212.81 82.0447 204.809C99.4609 194.808 103.665 182.307 161.318 194.808C218.972 207.309 209.964 201.309 229.182 204.809C244.556 207.61 274.824 225.311 288.036 233.812C298.246 241.646 323.229 250.813 341.486 224.811C364.307 192.308 399.14 174.807 418.358 184.808C437.575 194.808 475.411 220.31 488.022 221.31C500.634 222.31 505.439 221.31 554.084 198.308C593 179.907 653.576 200.309 679 212.81" stroke="#FB896B" stroke-opacity="0.5" stroke-width="4" stroke-linecap="round"/>
</g>
<g filter="url(#filter2_d_564_12425)">
<rect x="408.157" y="168" width="14.0434" height="14" rx="7" fill="#FB896B"/>
<rect x="409.157" y="169" width="12.0434" height="12" rx="6" stroke="white" stroke-width="2"/>
</g>
<g filter="url(#filter3_d_564_12425)">
<path fill-rule="evenodd" clip-rule="evenodd" d="M363 66C357.477 66 353 70.4772 353 76V136C353 141.523 357.477 146 363 146H403.608L413.134 162.5C413.519 163.167 414.481 163.167 414.866 162.5L424.392 146H465C470.523 146 475 141.523 475 136V76C475 70.4772 470.523 66 465 66H363Z" fill="white"/>
</g>
<circle cx="376" cy="92" r="7" fill="#F5866A"/>
<path d="M392.322 97L396.767 88.2102V88.1357H391.626V86.8182H398.358V88.1804L393.928 97H392.322ZM403.931 97V86.8182H407.56C408.353 86.8182 409.009 86.9624 409.529 87.2507C410.049 87.5391 410.439 87.9335 410.697 88.4339C410.956 88.9311 411.085 89.4912 411.085 90.1143C411.085 90.7408 410.954 91.3042 410.692 91.8047C410.434 92.3018 410.043 92.6963 409.519 92.9879C408.999 93.2763 408.344 93.4205 407.555 93.4205H405.06V92.1179H407.416C407.917 92.1179 408.323 92.0317 408.634 91.8594C408.946 91.6837 409.174 91.4451 409.32 91.1435C409.466 90.8419 409.539 90.4988 409.539 90.1143C409.539 89.7299 409.466 89.3885 409.32 89.0902C409.174 88.7919 408.944 88.5582 408.629 88.3892C408.318 88.2202 407.907 88.1357 407.396 88.1357H405.467V97H403.931ZM412.767 97V89.3636H414.204V90.5767H414.283C414.422 90.1657 414.668 89.8426 415.019 89.6072C415.374 89.3686 415.775 89.2493 416.222 89.2493C416.315 89.2493 416.424 89.2526 416.55 89.2592C416.68 89.2659 416.781 89.2741 416.854 89.2841V90.706C416.794 90.6894 416.688 90.6712 416.535 90.6513C416.383 90.6281 416.23 90.6165 416.078 90.6165C415.727 90.6165 415.413 90.6911 415.138 90.8402C414.867 90.986 414.651 91.1899 414.492 91.4517C414.333 91.7102 414.253 92.0052 414.253 92.3366V97H412.767ZM421.083 97.1541C420.367 97.1541 419.742 96.9901 419.209 96.6619C418.675 96.3338 418.261 95.8748 417.966 95.2848C417.671 94.6948 417.523 94.0054 417.523 93.2166C417.523 92.4245 417.671 91.7318 417.966 91.1385C418.261 90.5452 418.675 90.0845 419.209 89.7564C419.742 89.4283 420.367 89.2642 421.083 89.2642C421.799 89.2642 422.424 89.4283 422.957 89.7564C423.491 90.0845 423.905 90.5452 424.2 91.1385C424.495 91.7318 424.643 92.4245 424.643 93.2166C424.643 94.0054 424.495 94.6948 424.2 95.2848C423.905 95.8748 423.491 96.3338 422.957 96.6619C422.424 96.9901 421.799 97.1541 421.083 97.1541ZM421.088 95.9062C421.552 95.9062 421.937 95.7836 422.241 95.5384C422.546 95.2931 422.772 94.9666 422.918 94.5589C423.067 94.1513 423.141 93.7022 423.141 93.2116C423.141 92.7244 423.067 92.277 422.918 91.8693C422.772 91.4583 422.546 91.1286 422.241 90.88C421.937 90.6314 421.552 90.5071 421.088 90.5071C420.621 90.5071 420.233 90.6314 419.925 90.88C419.62 91.1286 419.393 91.4583 419.244 91.8693C419.098 92.277 419.025 92.7244 419.025 93.2116C419.025 93.7022 419.098 94.1513 419.244 94.5589C419.393 94.9666 419.62 95.2931 419.925 95.5384C420.233 95.7836 420.621 95.9062 421.088 95.9062ZM426.302 89.3636H427.789V97.4972C427.789 98.0076 427.696 98.4384 427.51 98.7898C427.328 99.1411 427.056 99.4079 426.695 99.5902C426.337 99.7725 425.894 99.8636 425.367 99.8636C425.314 99.8636 425.265 99.8636 425.218 99.8636C425.169 99.8636 425.117 99.862 425.064 99.8587V98.581C425.11 98.581 425.152 98.581 425.188 98.581C425.222 98.581 425.26 98.581 425.303 98.581C425.654 98.581 425.908 98.4865 426.063 98.2976C426.222 98.112 426.302 97.8419 426.302 97.4872V89.3636ZM427.038 88.1854C426.779 88.1854 426.557 88.0992 426.372 87.9268C426.189 87.7512 426.098 87.5424 426.098 87.3004C426.098 87.0552 426.189 86.8464 426.372 86.674C426.557 86.4983 426.779 86.4105 427.038 86.4105C427.296 86.4105 427.517 86.4983 427.699 86.674C427.885 86.8464 427.977 87.0552 427.977 87.3004C427.977 87.5424 427.885 87.7512 427.699 87.9268C427.517 88.0992 427.296 88.1854 427.038 88.1854ZM433.08 97.1541C432.327 97.1541 431.679 96.9934 431.136 96.6719C430.595 96.3471 430.178 95.8913 429.883 95.3047C429.591 94.7147 429.445 94.0237 429.445 93.2315C429.445 92.4493 429.591 91.7599 429.883 91.1634C430.178 90.5668 430.589 90.1011 431.116 89.7663C431.646 89.4316 432.266 89.2642 432.975 89.2642C433.406 89.2642 433.824 89.3355 434.228 89.478C434.632 89.6205 434.995 89.8442 435.317 90.1491C435.638 90.4541 435.892 90.8501 436.077 91.3374C436.263 91.8213 436.356 92.4096 436.356 93.1023V93.6293H430.286V92.5156H434.899C434.899 92.1245 434.82 91.7782 434.661 91.4766C434.501 91.1716 434.278 90.9313 433.989 90.7557C433.704 90.58 433.37 90.4922 432.985 90.4922C432.567 90.4922 432.203 90.5949 431.891 90.8004C431.583 91.0026 431.344 91.2678 431.175 91.5959C431.01 91.9207 430.927 92.2737 430.927 92.6548V93.5249C430.927 94.0353 431.016 94.4695 431.195 94.8274C431.378 95.1854 431.631 95.4588 431.956 95.6477C432.281 95.8333 432.66 95.9261 433.094 95.9261C433.376 95.9261 433.633 95.8864 433.865 95.8068C434.097 95.724 434.298 95.6013 434.467 95.4389C434.636 95.2765 434.765 95.076 434.854 94.8374L436.261 95.0909C436.149 95.5052 435.946 95.8681 435.655 96.1797C435.366 96.4879 435.004 96.7282 434.566 96.9006C434.132 97.0696 433.636 97.1541 433.08 97.1541ZM441.222 97.1541C440.483 97.1541 439.846 96.9867 439.313 96.652C438.782 96.3139 438.375 95.8482 438.09 95.255C437.805 94.6617 437.662 93.9822 437.662 93.2166C437.662 92.4411 437.808 91.7566 438.1 91.1634C438.391 90.5668 438.802 90.1011 439.333 89.7663C439.863 89.4316 440.488 89.2642 441.207 89.2642C441.787 89.2642 442.304 89.3719 442.758 89.5874C443.212 89.7995 443.578 90.0978 443.857 90.4822C444.138 90.8667 444.306 91.3158 444.359 91.8295H442.912C442.833 91.4716 442.65 91.1634 442.365 90.9048C442.084 90.6463 441.706 90.517 441.232 90.517C440.817 90.517 440.454 90.6264 440.143 90.8452C439.835 91.0606 439.594 91.3688 439.422 91.7699C439.25 92.1676 439.164 92.6383 439.164 93.1818C439.164 93.7386 439.248 94.2192 439.417 94.6236C439.586 95.0279 439.825 95.3411 440.133 95.5632C440.445 95.7853 440.811 95.8963 441.232 95.8963C441.513 95.8963 441.769 95.8449 441.997 95.7422C442.229 95.6361 442.423 95.4853 442.579 95.2898C442.738 95.0942 442.849 94.8589 442.912 94.5838H444.359C444.306 95.0777 444.145 95.5185 443.877 95.9062C443.608 96.294 443.249 96.599 442.798 96.821C442.35 97.0431 441.825 97.1541 441.222 97.1541ZM449.513 89.3636V90.5568H445.342V89.3636H449.513ZM446.461 87.5341H447.947V94.7578C447.947 95.0462 447.99 95.2633 448.076 95.4091C448.163 95.5516 448.274 95.6494 448.409 95.7024C448.549 95.7521 448.699 95.777 448.862 95.777C448.981 95.777 449.086 95.7687 449.175 95.7521C449.265 95.7356 449.334 95.7223 449.384 95.7124L449.652 96.9403C449.566 96.9735 449.444 97.0066 449.284 97.0398C449.125 97.0762 448.926 97.0961 448.688 97.0994C448.297 97.1061 447.932 97.0365 447.594 96.8906C447.256 96.7448 446.983 96.5194 446.774 96.2145C446.565 95.9096 446.461 95.5268 446.461 95.0661V87.5341ZM456.757 91.228L455.409 91.4666C455.353 91.2943 455.264 91.1302 455.141 90.9744C455.022 90.8187 454.859 90.6911 454.654 90.5916C454.448 90.4922 454.191 90.4425 453.883 90.4425C453.462 90.4425 453.111 90.5369 452.829 90.7259C452.547 90.9115 452.407 91.1518 452.407 91.4467C452.407 91.7019 452.501 91.9074 452.69 92.0632C452.879 92.219 453.184 92.3466 453.605 92.446L454.818 92.7244C455.52 92.8868 456.044 93.1371 456.389 93.4751C456.734 93.8132 456.906 94.2524 456.906 94.7926C456.906 95.25 456.773 95.6577 456.508 96.0156C456.246 96.3703 455.88 96.6487 455.409 96.8509C454.942 97.053 454.4 97.1541 453.784 97.1541C452.929 97.1541 452.231 96.9718 451.691 96.6072C451.15 96.2393 450.819 95.7173 450.696 95.0412L452.133 94.8224C452.223 95.197 452.407 95.4804 452.685 95.6726C452.963 95.8615 453.326 95.956 453.774 95.956C454.261 95.956 454.65 95.8549 454.942 95.6527C455.234 95.4472 455.38 95.197 455.38 94.902C455.38 94.6634 455.29 94.4628 455.111 94.3004C454.935 94.138 454.665 94.0154 454.301 93.9325L453.008 93.6491C452.296 93.4867 451.769 93.2282 451.427 92.8736C451.089 92.5189 450.92 92.0698 450.92 91.5263C450.92 91.0755 451.046 90.6811 451.298 90.343C451.55 90.005 451.898 89.7415 452.342 89.5526C452.786 89.3603 453.295 89.2642 453.868 89.2642C454.694 89.2642 455.343 89.4432 455.817 89.8011C456.291 90.1558 456.604 90.6314 456.757 91.228Z" fill="#23262F"/>
<circle cx="376" cy="120" r="7" fill="#6956E5"/>
<path d="M395.34 125.139C394.717 125.139 394.157 125.02 393.66 124.781C393.166 124.539 392.772 124.208 392.477 123.787C392.182 123.366 392.024 122.885 392.004 122.345H393.496C393.532 122.783 393.726 123.142 394.077 123.424C394.429 123.706 394.85 123.847 395.34 123.847C395.731 123.847 396.078 123.757 396.379 123.578C396.684 123.396 396.923 123.146 397.095 122.827C397.271 122.509 397.359 122.146 397.359 121.739C397.359 121.324 397.269 120.955 397.09 120.63C396.911 120.305 396.664 120.05 396.349 119.864C396.038 119.679 395.68 119.584 395.276 119.581C394.967 119.581 394.657 119.634 394.346 119.74C394.034 119.846 393.782 119.985 393.59 120.158L392.183 119.949L392.755 114.818H398.353V116.136H394.033L393.71 118.984H393.769C393.968 118.792 394.232 118.631 394.56 118.502C394.891 118.373 395.246 118.308 395.624 118.308C396.243 118.308 396.795 118.456 397.279 118.751C397.766 119.046 398.149 119.448 398.428 119.959C398.709 120.466 398.848 121.049 398.845 121.709C398.848 122.368 398.699 122.957 398.398 123.474C398.099 123.991 397.685 124.398 397.155 124.697C396.628 124.992 396.023 125.139 395.34 125.139ZM404.505 125V114.818H408.135C408.927 114.818 409.583 114.962 410.103 115.251C410.624 115.539 411.013 115.933 411.272 116.434C411.53 116.931 411.659 117.491 411.659 118.114C411.659 118.741 411.529 119.304 411.267 119.805C411.008 120.302 410.617 120.696 410.093 120.988C409.573 121.276 408.918 121.42 408.13 121.42H405.634V120.118H407.99C408.491 120.118 408.897 120.032 409.208 119.859C409.52 119.684 409.749 119.445 409.895 119.143C410.04 118.842 410.113 118.499 410.113 118.114C410.113 117.73 410.04 117.388 409.895 117.09C409.749 116.792 409.518 116.558 409.203 116.389C408.892 116.22 408.481 116.136 407.971 116.136H406.042V125H404.505ZM413.341 125V117.364H414.778V118.577H414.857C414.997 118.166 415.242 117.843 415.593 117.607C415.948 117.369 416.349 117.249 416.796 117.249C416.889 117.249 416.999 117.253 417.124 117.259C417.254 117.266 417.355 117.274 417.428 117.284V118.706C417.368 118.689 417.262 118.671 417.11 118.651C416.957 118.628 416.805 118.616 416.652 118.616C416.301 118.616 415.988 118.691 415.713 118.84C415.441 118.986 415.225 119.19 415.066 119.452C414.907 119.71 414.828 120.005 414.828 120.337V125H413.341ZM421.657 125.154C420.941 125.154 420.317 124.99 419.783 124.662C419.249 124.334 418.835 123.875 418.54 123.285C418.245 122.695 418.098 122.005 418.098 121.217C418.098 120.424 418.245 119.732 418.54 119.138C418.835 118.545 419.249 118.085 419.783 117.756C420.317 117.428 420.941 117.264 421.657 117.264C422.373 117.264 422.998 117.428 423.532 117.756C424.065 118.085 424.48 118.545 424.775 119.138C425.069 119.732 425.217 120.424 425.217 121.217C425.217 122.005 425.069 122.695 424.775 123.285C424.48 123.875 424.065 124.334 423.532 124.662C422.998 124.99 422.373 125.154 421.657 125.154ZM421.662 123.906C422.126 123.906 422.511 123.784 422.816 123.538C423.121 123.293 423.346 122.967 423.492 122.559C423.641 122.151 423.716 121.702 423.716 121.212C423.716 120.724 423.641 120.277 423.492 119.869C423.346 119.458 423.121 119.129 422.816 118.88C422.511 118.631 422.126 118.507 421.662 118.507C421.195 118.507 420.807 118.631 420.499 118.88C420.194 119.129 419.967 119.458 419.818 119.869C419.672 120.277 419.599 120.724 419.599 121.212C419.599 121.702 419.672 122.151 419.818 122.559C419.967 122.967 420.194 123.293 420.499 123.538C420.807 123.784 421.195 123.906 421.662 123.906ZM426.876 117.364H428.363V125.497C428.363 126.008 428.27 126.438 428.084 126.79C427.902 127.141 427.63 127.408 427.269 127.59C426.911 127.772 426.469 127.864 425.942 127.864C425.889 127.864 425.839 127.864 425.792 127.864C425.743 127.864 425.691 127.862 425.638 127.859V126.581C425.685 126.581 425.726 126.581 425.763 126.581C425.796 126.581 425.834 126.581 425.877 126.581C426.228 126.581 426.482 126.487 426.638 126.298C426.797 126.112 426.876 125.842 426.876 125.487V117.364ZM427.612 116.185C427.354 116.185 427.131 116.099 426.946 115.927C426.764 115.751 426.672 115.542 426.672 115.3C426.672 115.055 426.764 114.846 426.946 114.674C427.131 114.498 427.354 114.411 427.612 114.411C427.871 114.411 428.091 114.498 428.273 114.674C428.459 114.846 428.552 115.055 428.552 115.3C428.552 115.542 428.459 115.751 428.273 115.927C428.091 116.099 427.871 116.185 427.612 116.185ZM433.654 125.154C432.901 125.154 432.253 124.993 431.71 124.672C431.17 124.347 430.752 123.891 430.457 123.305C430.165 122.715 430.02 122.024 430.02 121.232C430.02 120.449 430.165 119.76 430.457 119.163C430.752 118.567 431.163 118.101 431.69 117.766C432.22 117.432 432.84 117.264 433.549 117.264C433.98 117.264 434.398 117.335 434.802 117.478C435.207 117.621 435.569 117.844 435.891 118.149C436.212 118.454 436.466 118.85 436.652 119.337C436.837 119.821 436.93 120.41 436.93 121.102V121.629H430.86V120.516H435.473C435.473 120.125 435.394 119.778 435.235 119.477C435.076 119.172 434.852 118.931 434.564 118.756C434.279 118.58 433.944 118.492 433.559 118.492C433.142 118.492 432.777 118.595 432.466 118.8C432.157 119.003 431.919 119.268 431.75 119.596C431.584 119.921 431.501 120.274 431.501 120.655V121.525C431.501 122.035 431.591 122.469 431.77 122.827C431.952 123.185 432.205 123.459 432.53 123.648C432.855 123.833 433.234 123.926 433.669 123.926C433.95 123.926 434.207 123.886 434.439 123.807C434.671 123.724 434.872 123.601 435.041 123.439C435.21 123.277 435.339 123.076 435.429 122.837L436.836 123.091C436.723 123.505 436.521 123.868 436.229 124.18C435.941 124.488 435.578 124.728 435.14 124.901C434.706 125.07 434.211 125.154 433.654 125.154ZM441.796 125.154C441.057 125.154 440.421 124.987 439.887 124.652C439.357 124.314 438.949 123.848 438.664 123.255C438.379 122.662 438.236 121.982 438.236 121.217C438.236 120.441 438.382 119.757 438.674 119.163C438.965 118.567 439.376 118.101 439.907 117.766C440.437 117.432 441.062 117.264 441.781 117.264C442.361 117.264 442.878 117.372 443.332 117.587C443.786 117.799 444.153 118.098 444.431 118.482C444.713 118.867 444.88 119.316 444.933 119.83H443.486C443.407 119.472 443.224 119.163 442.939 118.905C442.658 118.646 442.28 118.517 441.806 118.517C441.392 118.517 441.029 118.626 440.717 118.845C440.409 119.061 440.169 119.369 439.996 119.77C439.824 120.168 439.738 120.638 439.738 121.182C439.738 121.739 439.822 122.219 439.991 122.624C440.16 123.028 440.399 123.341 440.707 123.563C441.019 123.785 441.385 123.896 441.806 123.896C442.088 123.896 442.343 123.845 442.572 123.742C442.804 123.636 442.997 123.485 443.153 123.29C443.312 123.094 443.423 122.859 443.486 122.584H444.933C444.88 123.078 444.719 123.518 444.451 123.906C444.182 124.294 443.823 124.599 443.372 124.821C442.925 125.043 442.399 125.154 441.796 125.154ZM450.087 117.364V118.557H445.916V117.364H450.087ZM447.035 115.534H448.521V122.758C448.521 123.046 448.564 123.263 448.651 123.409C448.737 123.552 448.848 123.649 448.984 123.702C449.123 123.752 449.274 123.777 449.436 123.777C449.555 123.777 449.66 123.769 449.749 123.752C449.839 123.736 449.908 123.722 449.958 123.712L450.227 124.94C450.14 124.973 450.018 125.007 449.859 125.04C449.7 125.076 449.501 125.096 449.262 125.099C448.871 125.106 448.506 125.036 448.168 124.891C447.83 124.745 447.557 124.519 447.348 124.214C447.139 123.91 447.035 123.527 447.035 123.066V115.534ZM457.331 119.228L455.984 119.467C455.927 119.294 455.838 119.13 455.715 118.974C455.596 118.819 455.433 118.691 455.228 118.592C455.022 118.492 454.766 118.442 454.457 118.442C454.036 118.442 453.685 118.537 453.403 118.726C453.122 118.911 452.981 119.152 452.981 119.447C452.981 119.702 453.075 119.907 453.264 120.063C453.453 120.219 453.758 120.347 454.179 120.446L455.392 120.724C456.095 120.887 456.618 121.137 456.963 121.475C457.308 121.813 457.48 122.252 457.48 122.793C457.48 123.25 457.348 123.658 457.082 124.016C456.821 124.37 456.454 124.649 455.984 124.851C455.516 125.053 454.974 125.154 454.358 125.154C453.503 125.154 452.805 124.972 452.265 124.607C451.725 124.239 451.393 123.717 451.271 123.041L452.707 122.822C452.797 123.197 452.981 123.48 453.259 123.673C453.538 123.862 453.901 123.956 454.348 123.956C454.835 123.956 455.225 123.855 455.516 123.653C455.808 123.447 455.954 123.197 455.954 122.902C455.954 122.663 455.864 122.463 455.685 122.3C455.51 122.138 455.24 122.015 454.875 121.933L453.582 121.649C452.87 121.487 452.343 121.228 452.001 120.874C451.663 120.519 451.494 120.07 451.494 119.526C451.494 119.076 451.62 118.681 451.872 118.343C452.124 118.005 452.472 117.741 452.916 117.553C453.36 117.36 453.869 117.264 454.442 117.264C455.268 117.264 455.917 117.443 456.391 117.801C456.865 118.156 457.179 118.631 457.331 119.228Z" fill="#23262F"/>
<path d="M42.4205 338.636C42.4205 339.557 42.2543 340.352 41.9219 341.023C41.5895 341.693 41.1335 342.21 40.554 342.574C39.9744 342.938 39.3125 343.119 38.5682 343.119C37.8239 343.119 37.1619 342.938 36.5824 342.574C36.0028 342.21 35.5469 341.693 35.2145 341.023C34.8821 340.352 34.7159 339.557 34.7159 338.636C34.7159 337.716 34.8821 336.92 35.2145 336.25C35.5469 335.58 36.0028 335.062 36.5824 334.699C37.1619 334.335 37.8239 334.153 38.5682 334.153C39.3125 334.153 39.9744 334.335 40.554 334.699C41.1335 335.062 41.5895 335.58 41.9219 336.25C42.2543 336.92 42.4205 337.716 42.4205 338.636ZM41.3977 338.636C41.3977 337.881 41.2713 337.243 41.0185 336.723C40.7685 336.203 40.429 335.81 40 335.543C39.5739 335.276 39.0966 335.142 38.5682 335.142C38.0398 335.142 37.5611 335.276 37.1321 335.543C36.706 335.81 36.3665 336.203 36.1136 336.723C35.8636 337.243 35.7386 337.881 35.7386 338.636C35.7386 339.392 35.8636 340.03 36.1136 340.55C36.3665 341.07 36.706 341.463 37.1321 341.73C37.5611 341.997 38.0398 342.131 38.5682 342.131C39.0966 342.131 39.5739 341.997 40 341.73C40.429 341.463 40.7685 341.07 41.0185 340.55C41.2713 340.03 41.3977 339.392 41.3977 338.636ZM46.7202 343.136C46.1065 343.136 45.5781 342.991 45.1349 342.702C44.6918 342.412 44.3509 342.013 44.1122 341.504C43.8736 340.996 43.7543 340.415 43.7543 339.761C43.7543 339.097 43.8764 338.51 44.1207 338.001C44.3679 337.49 44.7116 337.091 45.152 336.804C45.5952 336.514 46.1122 336.369 46.7031 336.369C47.1634 336.369 47.5781 336.455 47.9474 336.625C48.3168 336.795 48.6193 337.034 48.8551 337.341C49.0909 337.648 49.2372 338.006 49.294 338.415H48.2884C48.2116 338.116 48.0412 337.852 47.777 337.622C47.5156 337.389 47.1634 337.273 46.7202 337.273C46.3281 337.273 45.9844 337.375 45.6889 337.58C45.3963 337.781 45.1676 338.067 45.0028 338.436C44.8409 338.803 44.7599 339.233 44.7599 339.727C44.7599 340.233 44.8395 340.673 44.9986 341.048C45.1605 341.423 45.3878 341.714 45.6804 341.922C45.9759 342.129 46.3224 342.233 46.7202 342.233C46.9815 342.233 47.2188 342.188 47.4318 342.097C47.6449 342.006 47.8253 341.875 47.973 341.705C48.1207 341.534 48.2259 341.33 48.2884 341.091H49.294C49.2372 341.477 49.0966 341.825 48.8722 342.135C48.6506 342.442 48.3565 342.686 47.9901 342.868C47.6264 343.047 47.2031 343.136 46.7202 343.136ZM53.6108 336.455V337.307H50.2188V336.455H53.6108ZM51.2074 334.886H52.2131V341.125C52.2131 341.409 52.2543 341.622 52.3366 341.764C52.4219 341.903 52.5298 341.997 52.6605 342.045C52.794 342.091 52.9347 342.114 53.0824 342.114C53.1932 342.114 53.2841 342.108 53.3551 342.097C53.4261 342.082 53.483 342.071 53.5256 342.062L53.7301 342.966C53.6619 342.991 53.5668 343.017 53.4446 343.043C53.3224 343.071 53.1676 343.085 52.9801 343.085C52.696 343.085 52.4176 343.024 52.1449 342.902C51.875 342.78 51.6506 342.594 51.4716 342.344C51.2955 342.094 51.2074 341.778 51.2074 341.398V334.886ZM58.4815 343V342.233L61.3622 339.08C61.7003 338.71 61.9787 338.389 62.1974 338.116C62.4162 337.841 62.5781 337.582 62.6832 337.341C62.7912 337.097 62.8452 336.841 62.8452 336.574C62.8452 336.267 62.7713 336.001 62.6236 335.777C62.4787 335.553 62.2798 335.379 62.027 335.257C61.7741 335.135 61.4901 335.074 61.1747 335.074C60.8395 335.074 60.5469 335.143 60.2969 335.283C60.0497 335.419 59.858 335.611 59.7216 335.858C59.5881 336.105 59.5213 336.395 59.5213 336.727H58.5156C58.5156 336.216 58.6335 335.767 58.8693 335.381C59.1051 334.994 59.4261 334.693 59.8324 334.477C60.2415 334.261 60.7003 334.153 61.2088 334.153C61.7202 334.153 62.1733 334.261 62.5682 334.477C62.9631 334.693 63.2727 334.984 63.4972 335.351C63.7216 335.717 63.8338 336.125 63.8338 336.574C63.8338 336.895 63.7756 337.209 63.6591 337.516C63.5455 337.82 63.3466 338.159 63.0625 338.534C62.7812 338.906 62.3906 339.361 61.8906 339.898L59.9304 341.994V342.062H63.9872V343H58.4815ZM68.5938 343.119C67.9517 343.119 67.4048 342.945 66.9531 342.595C66.5014 342.243 66.1563 341.733 65.9176 341.065C65.679 340.395 65.5597 339.585 65.5597 338.636C65.5597 337.693 65.679 336.888 65.9176 336.22C66.1591 335.55 66.5057 335.038 66.9574 334.686C67.4119 334.331 67.9574 334.153 68.5938 334.153C69.2301 334.153 69.7741 334.331 70.2259 334.686C70.6804 335.038 71.027 335.55 71.2656 336.22C71.5071 336.888 71.6278 337.693 71.6278 338.636C71.6278 339.585 71.5085 340.395 71.2699 341.065C71.0312 341.733 70.6861 342.243 70.2344 342.595C69.7827 342.945 69.2358 343.119 68.5938 343.119ZM68.5938 342.182C69.2301 342.182 69.7244 341.875 70.0767 341.261C70.429 340.648 70.6051 339.773 70.6051 338.636C70.6051 337.881 70.5241 337.237 70.3622 336.706C70.2031 336.175 69.973 335.77 69.6719 335.491C69.3736 335.213 69.0142 335.074 68.5938 335.074C67.9631 335.074 67.4702 335.385 67.1151 336.007C66.7599 336.626 66.5824 337.503 66.5824 338.636C66.5824 339.392 66.6619 340.034 66.821 340.562C66.9801 341.091 67.2088 341.493 67.5071 341.768C67.8082 342.044 68.1705 342.182 68.5938 342.182ZM73.2472 343V342.233L76.1278 339.08C76.4659 338.71 76.7443 338.389 76.9631 338.116C77.1818 337.841 77.3438 337.582 77.4489 337.341C77.5568 337.097 77.6108 336.841 77.6108 336.574C77.6108 336.267 77.5369 336.001 77.3892 335.777C77.2443 335.553 77.0455 335.379 76.7926 335.257C76.5398 335.135 76.2557 335.074 75.9403 335.074C75.6051 335.074 75.3125 335.143 75.0625 335.283C74.8153 335.419 74.6236 335.611 74.4872 335.858C74.3537 336.105 74.2869 336.395 74.2869 336.727H73.2812C73.2812 336.216 73.3991 335.767 73.6349 335.381C73.8707 334.994 74.1918 334.693 74.598 334.477C75.0071 334.261 75.4659 334.153 75.9744 334.153C76.4858 334.153 76.9389 334.261 77.3338 334.477C77.7287 334.693 78.0384 334.984 78.2628 335.351C78.4872 335.717 78.5994 336.125 78.5994 336.574C78.5994 336.895 78.5412 337.209 78.4247 337.516C78.3111 337.82 78.1122 338.159 77.8281 338.534C77.5469 338.906 77.1562 339.361 76.6562 339.898L74.696 341.994V342.062H78.7528V343H73.2472ZM83.581 334.273V343H82.5241V335.381H82.473L80.3423 336.795V335.722L82.5241 334.273H83.581Z" fill="#6B7280"/>
<path d="M159.977 334.273V343H158.955L154.199 336.148H154.114V343H153.057V334.273H154.08L158.852 341.142H158.938V334.273H159.977ZM164.615 343.136C164.024 343.136 163.505 342.996 163.059 342.714C162.616 342.433 162.27 342.04 162.02 341.534C161.772 341.028 161.649 340.437 161.649 339.761C161.649 339.08 161.772 338.484 162.02 337.976C162.27 337.467 162.616 337.072 163.059 336.791C163.505 336.51 164.024 336.369 164.615 336.369C165.206 336.369 165.723 336.51 166.166 336.791C166.612 337.072 166.958 337.467 167.206 337.976C167.456 338.484 167.581 339.08 167.581 339.761C167.581 340.437 167.456 341.028 167.206 341.534C166.958 342.04 166.612 342.433 166.166 342.714C165.723 342.996 165.206 343.136 164.615 343.136ZM164.615 342.233C165.064 342.233 165.433 342.118 165.723 341.888C166.012 341.658 166.227 341.355 166.366 340.98C166.505 340.605 166.575 340.199 166.575 339.761C166.575 339.324 166.505 338.916 166.366 338.538C166.227 338.161 166.012 337.855 165.723 337.622C165.433 337.389 165.064 337.273 164.615 337.273C164.166 337.273 163.797 337.389 163.507 337.622C163.217 337.855 163.002 338.161 162.863 338.538C162.724 338.916 162.654 339.324 162.654 339.761C162.654 340.199 162.724 340.605 162.863 340.98C163.002 341.355 163.217 341.658 163.507 341.888C163.797 342.118 164.166 342.233 164.615 342.233ZM174.234 336.455L171.813 343H170.79L168.37 336.455H169.461L171.268 341.67H171.336L173.143 336.455H174.234ZM178.919 343V342.233L181.8 339.08C182.138 338.71 182.416 338.389 182.635 338.116C182.854 337.841 183.016 337.582 183.121 337.341C183.229 337.097 183.283 336.841 183.283 336.574C183.283 336.267 183.209 336.001 183.061 335.777C182.916 335.553 182.717 335.379 182.464 335.257C182.212 335.135 181.928 335.074 181.612 335.074C181.277 335.074 180.984 335.143 180.734 335.283C180.487 335.419 180.295 335.611 180.159 335.858C180.026 336.105 179.959 336.395 179.959 336.727H178.953C178.953 336.216 179.071 335.767 179.307 335.381C179.543 334.994 179.864 334.693 180.27 334.477C180.679 334.261 181.138 334.153 181.646 334.153C182.158 334.153 182.611 334.261 183.006 334.477C183.401 334.693 183.71 334.984 183.935 335.351C184.159 335.717 184.271 336.125 184.271 336.574C184.271 336.895 184.213 337.209 184.097 337.516C183.983 337.82 183.784 338.159 183.5 338.534C183.219 338.906 182.828 339.361 182.328 339.898L180.368 341.994V342.062H184.425V343H178.919ZM189.031 343.119C188.389 343.119 187.842 342.945 187.391 342.595C186.939 342.243 186.594 341.733 186.355 341.065C186.116 340.395 185.997 339.585 185.997 338.636C185.997 337.693 186.116 336.888 186.355 336.22C186.597 335.55 186.943 335.038 187.395 334.686C187.849 334.331 188.395 334.153 189.031 334.153C189.668 334.153 190.212 334.331 190.663 334.686C191.118 335.038 191.464 335.55 191.703 336.22C191.945 336.888 192.065 337.693 192.065 338.636C192.065 339.585 191.946 340.395 191.707 341.065C191.469 341.733 191.124 342.243 190.672 342.595C190.22 342.945 189.673 343.119 189.031 343.119ZM189.031 342.182C189.668 342.182 190.162 341.875 190.514 341.261C190.866 340.648 191.043 339.773 191.043 338.636C191.043 337.881 190.962 337.237 190.8 336.706C190.641 336.175 190.411 335.77 190.109 335.491C189.811 335.213 189.452 335.074 189.031 335.074C188.401 335.074 187.908 335.385 187.553 336.007C187.197 336.626 187.02 337.503 187.02 338.636C187.02 339.392 187.099 340.034 187.259 340.562C187.418 341.091 187.646 341.493 187.945 341.768C188.246 342.044 188.608 342.182 189.031 342.182ZM193.685 343V342.233L196.565 339.08C196.903 338.71 197.182 338.389 197.401 338.116C197.619 337.841 197.781 337.582 197.886 337.341C197.994 337.097 198.048 336.841 198.048 336.574C198.048 336.267 197.974 336.001 197.827 335.777C197.682 335.553 197.483 335.379 197.23 335.257C196.977 335.135 196.693 335.074 196.378 335.074C196.043 335.074 195.75 335.143 195.5 335.283C195.253 335.419 195.061 335.611 194.925 335.858C194.791 336.105 194.724 336.395 194.724 336.727H193.719C193.719 336.216 193.837 335.767 194.072 335.381C194.308 334.994 194.629 334.693 195.036 334.477C195.445 334.261 195.903 334.153 196.412 334.153C196.923 334.153 197.376 334.261 197.771 334.477C198.166 334.693 198.476 334.984 198.7 335.351C198.925 335.717 199.037 336.125 199.037 336.574C199.037 336.895 198.979 337.209 198.862 337.516C198.749 337.82 198.55 338.159 198.266 338.534C197.984 338.906 197.594 339.361 197.094 339.898L195.134 341.994V342.062H199.19V343H193.685ZM204.018 334.273V343H202.962V335.381H202.911L200.78 336.795V335.722L202.962 334.273H204.018Z" fill="#6B7280"/>
<path d="M275.75 343H273.057V334.273H275.869C276.716 334.273 277.44 334.447 278.043 334.797C278.645 335.143 279.107 335.642 279.428 336.293C279.749 336.94 279.909 337.716 279.909 338.619C279.909 339.528 279.747 340.311 279.423 340.967C279.099 341.621 278.628 342.124 278.009 342.476C277.389 342.825 276.636 343 275.75 343ZM274.114 342.062H275.682C276.403 342.062 277.001 341.923 277.476 341.645C277.95 341.366 278.304 340.97 278.537 340.456C278.77 339.942 278.886 339.33 278.886 338.619C278.886 337.915 278.771 337.308 278.541 336.8C278.311 336.288 277.967 335.896 277.51 335.624C277.053 335.348 276.483 335.21 275.801 335.21H274.114V342.062ZM284.29 343.136C283.659 343.136 283.115 342.997 282.658 342.719C282.203 342.438 281.852 342.045 281.605 341.543C281.361 341.037 281.239 340.449 281.239 339.778C281.239 339.108 281.361 338.517 281.605 338.006C281.852 337.491 282.196 337.091 282.636 336.804C283.08 336.514 283.597 336.369 284.188 336.369C284.528 336.369 284.865 336.426 285.197 336.54C285.53 336.653 285.832 336.838 286.105 337.094C286.378 337.347 286.595 337.682 286.757 338.099C286.919 338.517 287 339.031 287 339.642V340.068H281.955V339.199H285.977C285.977 338.83 285.903 338.5 285.756 338.21C285.611 337.92 285.403 337.692 285.134 337.524C284.866 337.357 284.551 337.273 284.188 337.273C283.787 337.273 283.44 337.372 283.148 337.571C282.858 337.767 282.635 338.023 282.479 338.338C282.322 338.653 282.244 338.991 282.244 339.352V339.932C282.244 340.426 282.33 340.845 282.5 341.189C282.673 341.53 282.913 341.79 283.22 341.969C283.527 342.145 283.884 342.233 284.29 342.233C284.554 342.233 284.793 342.196 285.006 342.122C285.222 342.045 285.408 341.932 285.564 341.781C285.72 341.628 285.841 341.437 285.926 341.21L286.898 341.483C286.795 341.812 286.624 342.102 286.382 342.352C286.141 342.599 285.842 342.793 285.487 342.932C285.132 343.068 284.733 343.136 284.29 343.136ZM291.189 343.136C290.575 343.136 290.047 342.991 289.604 342.702C289.161 342.412 288.82 342.013 288.581 341.504C288.342 340.996 288.223 340.415 288.223 339.761C288.223 339.097 288.345 338.51 288.589 338.001C288.837 337.49 289.18 337.091 289.621 336.804C290.064 336.514 290.581 336.369 291.172 336.369C291.632 336.369 292.047 336.455 292.416 336.625C292.786 336.795 293.088 337.034 293.324 337.341C293.56 337.648 293.706 338.006 293.763 338.415H292.757C292.68 338.116 292.51 337.852 292.246 337.622C291.984 337.389 291.632 337.273 291.189 337.273C290.797 337.273 290.453 337.375 290.158 337.58C289.865 337.781 289.636 338.067 289.472 338.436C289.31 338.803 289.229 339.233 289.229 339.727C289.229 340.233 289.308 340.673 289.467 341.048C289.629 341.423 289.857 341.714 290.149 341.922C290.445 342.129 290.791 342.233 291.189 342.233C291.45 342.233 291.688 342.188 291.901 342.097C292.114 342.006 292.294 341.875 292.442 341.705C292.589 341.534 292.695 341.33 292.757 341.091H293.763C293.706 341.477 293.565 341.825 293.341 342.135C293.119 342.442 292.825 342.686 292.459 342.868C292.095 343.047 291.672 343.136 291.189 343.136ZM298.591 343V342.233L301.472 339.08C301.81 338.71 302.088 338.389 302.307 338.116C302.526 337.841 302.688 337.582 302.793 337.341C302.901 337.097 302.955 336.841 302.955 336.574C302.955 336.267 302.881 336.001 302.733 335.777C302.588 335.553 302.389 335.379 302.136 335.257C301.884 335.135 301.599 335.074 301.284 335.074C300.949 335.074 300.656 335.143 300.406 335.283C300.159 335.419 299.967 335.611 299.831 335.858C299.697 336.105 299.631 336.395 299.631 336.727H298.625C298.625 336.216 298.743 335.767 298.979 335.381C299.214 334.994 299.536 334.693 299.942 334.477C300.351 334.261 300.81 334.153 301.318 334.153C301.83 334.153 302.283 334.261 302.678 334.477C303.072 334.693 303.382 334.984 303.607 335.351C303.831 335.717 303.943 336.125 303.943 336.574C303.943 336.895 303.885 337.209 303.768 337.516C303.655 337.82 303.456 338.159 303.172 338.534C302.891 338.906 302.5 339.361 302 339.898L300.04 341.994V342.062H304.097V343H298.591ZM308.703 343.119C308.061 343.119 307.514 342.945 307.062 342.595C306.611 342.243 306.266 341.733 306.027 341.065C305.788 340.395 305.669 339.585 305.669 338.636C305.669 337.693 305.788 336.888 306.027 336.22C306.268 335.55 306.615 335.038 307.067 334.686C307.521 334.331 308.067 334.153 308.703 334.153C309.339 334.153 309.884 334.331 310.335 334.686C310.79 335.038 311.136 335.55 311.375 336.22C311.616 336.888 311.737 337.693 311.737 338.636C311.737 339.585 311.618 340.395 311.379 341.065C311.141 341.733 310.795 342.243 310.344 342.595C309.892 342.945 309.345 343.119 308.703 343.119ZM308.703 342.182C309.339 342.182 309.834 341.875 310.186 341.261C310.538 340.648 310.714 339.773 310.714 338.636C310.714 337.881 310.634 337.237 310.472 336.706C310.313 336.175 310.082 335.77 309.781 335.491C309.483 335.213 309.124 335.074 308.703 335.074C308.072 335.074 307.58 335.385 307.224 336.007C306.869 336.626 306.692 337.503 306.692 338.636C306.692 339.392 306.771 340.034 306.93 340.562C307.089 341.091 307.318 341.493 307.616 341.768C307.918 342.044 308.28 342.182 308.703 342.182ZM313.357 343V342.233L316.237 339.08C316.575 338.71 316.854 338.389 317.072 338.116C317.291 337.841 317.453 337.582 317.558 337.341C317.666 337.097 317.72 336.841 317.72 336.574C317.72 336.267 317.646 336.001 317.499 335.777C317.354 335.553 317.155 335.379 316.902 335.257C316.649 335.135 316.365 335.074 316.05 335.074C315.714 335.074 315.422 335.143 315.172 335.283C314.925 335.419 314.733 335.611 314.597 335.858C314.463 336.105 314.396 336.395 314.396 336.727H313.391C313.391 336.216 313.509 335.767 313.744 335.381C313.98 334.994 314.301 334.693 314.707 334.477C315.116 334.261 315.575 334.153 316.084 334.153C316.595 334.153 317.048 334.261 317.443 334.477C317.838 334.693 318.148 334.984 318.372 335.351C318.597 335.717 318.709 336.125 318.709 336.574C318.709 336.895 318.651 337.209 318.534 337.516C318.42 337.82 318.222 338.159 317.938 338.534C317.656 338.906 317.266 339.361 316.766 339.898L314.805 341.994V342.062H318.862V343H313.357ZM323.69 334.273V343H322.634V335.381H322.582L320.452 336.795V335.722L322.634 334.273H323.69Z" fill="#6B7280"/>
<path d="M396.398 334.273H397.455V340.511C397.455 341.068 397.352 341.541 397.148 341.93C396.943 342.32 396.655 342.615 396.283 342.817C395.911 343.018 395.472 343.119 394.966 343.119C394.489 343.119 394.064 343.033 393.692 342.859C393.32 342.683 393.027 342.433 392.814 342.109C392.601 341.786 392.494 341.401 392.494 340.955H393.534C393.534 341.202 393.595 341.418 393.717 341.602C393.842 341.784 394.013 341.926 394.229 342.028C394.445 342.131 394.69 342.182 394.966 342.182C395.27 342.182 395.528 342.118 395.741 341.99C395.955 341.862 396.116 341.675 396.227 341.428C396.341 341.178 396.398 340.872 396.398 340.511V334.273ZM401.362 343.153C400.947 343.153 400.571 343.075 400.233 342.919C399.895 342.76 399.626 342.531 399.428 342.233C399.229 341.932 399.129 341.568 399.129 341.142C399.129 340.767 399.203 340.463 399.351 340.23C399.499 339.994 399.696 339.81 399.943 339.676C400.19 339.543 400.463 339.443 400.761 339.378C401.063 339.31 401.365 339.256 401.669 339.216C402.067 339.165 402.389 339.126 402.636 339.101C402.886 339.072 403.068 339.026 403.182 338.96C403.298 338.895 403.357 338.781 403.357 338.619V338.585C403.357 338.165 403.241 337.838 403.011 337.605C402.784 337.372 402.439 337.256 401.976 337.256C401.496 337.256 401.119 337.361 400.847 337.571C400.574 337.781 400.382 338.006 400.271 338.244L399.317 337.903C399.487 337.506 399.714 337.196 399.999 336.974C400.286 336.75 400.598 336.594 400.936 336.506C401.277 336.415 401.612 336.369 401.942 336.369C402.152 336.369 402.393 336.395 402.666 336.446C402.942 336.494 403.207 336.595 403.463 336.749C403.722 336.902 403.936 337.134 404.107 337.443C404.277 337.753 404.362 338.168 404.362 338.688V343H403.357V342.114H403.305C403.237 342.256 403.124 342.408 402.964 342.57C402.805 342.732 402.594 342.869 402.33 342.983C402.065 343.097 401.743 343.153 401.362 343.153ZM401.516 342.25C401.913 342.25 402.249 342.172 402.521 342.016C402.797 341.859 403.004 341.658 403.143 341.411C403.286 341.163 403.357 340.903 403.357 340.631V339.71C403.314 339.761 403.22 339.808 403.075 339.851C402.933 339.891 402.768 339.926 402.581 339.957C402.396 339.986 402.216 340.011 402.04 340.034C401.866 340.054 401.726 340.071 401.618 340.085C401.357 340.119 401.112 340.175 400.885 340.251C400.661 340.325 400.479 340.437 400.339 340.588C400.203 340.736 400.135 340.937 400.135 341.193C400.135 341.543 400.264 341.807 400.523 341.986C400.784 342.162 401.115 342.25 401.516 342.25ZM407.203 339.062V343H406.198V336.455H407.169V337.477H407.255C407.408 337.145 407.641 336.878 407.953 336.676C408.266 336.472 408.669 336.369 409.164 336.369C409.607 336.369 409.995 336.46 410.327 336.642C410.659 336.821 410.918 337.094 411.103 337.46C411.287 337.824 411.38 338.284 411.38 338.841V343H410.374V338.909C410.374 338.395 410.24 337.994 409.973 337.707C409.706 337.418 409.34 337.273 408.874 337.273C408.553 337.273 408.266 337.342 408.013 337.482C407.763 337.621 407.566 337.824 407.421 338.091C407.276 338.358 407.203 338.682 407.203 339.062ZM416.575 343V342.233L419.456 339.08C419.794 338.71 420.072 338.389 420.291 338.116C420.51 337.841 420.672 337.582 420.777 337.341C420.885 337.097 420.939 336.841 420.939 336.574C420.939 336.267 420.865 336.001 420.717 335.777C420.572 335.553 420.374 335.379 420.121 335.257C419.868 335.135 419.584 335.074 419.268 335.074C418.933 335.074 418.641 335.143 418.391 335.283C418.143 335.419 417.952 335.611 417.815 335.858C417.682 336.105 417.615 336.395 417.615 336.727H416.609C416.609 336.216 416.727 335.767 416.963 335.381C417.199 334.994 417.52 334.693 417.926 334.477C418.335 334.261 418.794 334.153 419.303 334.153C419.814 334.153 420.267 334.261 420.662 334.477C421.057 334.693 421.366 334.984 421.591 335.351C421.815 335.717 421.928 336.125 421.928 336.574C421.928 336.895 421.869 337.209 421.753 337.516C421.639 337.82 421.44 338.159 421.156 338.534C420.875 338.906 420.484 339.361 419.984 339.898L418.024 341.994V342.062H422.081V343H416.575ZM426.688 343.119C426.045 343.119 425.499 342.945 425.047 342.595C424.595 342.243 424.25 341.733 424.011 341.065C423.773 340.395 423.653 339.585 423.653 338.636C423.653 337.693 423.773 336.888 424.011 336.22C424.253 335.55 424.599 335.038 425.051 334.686C425.506 334.331 426.051 334.153 426.688 334.153C427.324 334.153 427.868 334.331 428.32 334.686C428.774 335.038 429.121 335.55 429.359 336.22C429.601 336.888 429.722 337.693 429.722 338.636C429.722 339.585 429.602 340.395 429.364 341.065C429.125 341.733 428.78 342.243 428.328 342.595C427.876 342.945 427.33 343.119 426.688 343.119ZM426.688 342.182C427.324 342.182 427.818 341.875 428.17 341.261C428.523 340.648 428.699 339.773 428.699 338.636C428.699 337.881 428.618 337.237 428.456 336.706C428.297 336.175 428.067 335.77 427.766 335.491C427.467 335.213 427.108 335.074 426.688 335.074C426.057 335.074 425.564 335.385 425.209 336.007C424.854 336.626 424.676 337.503 424.676 338.636C424.676 339.392 424.756 340.034 424.915 340.562C425.074 341.091 425.303 341.493 425.601 341.768C425.902 342.044 426.264 342.182 426.688 342.182ZM431.341 343V342.233L434.222 339.08C434.56 338.71 434.838 338.389 435.057 338.116C435.276 337.841 435.438 337.582 435.543 337.341C435.651 337.097 435.705 336.841 435.705 336.574C435.705 336.267 435.631 336.001 435.483 335.777C435.338 335.553 435.139 335.379 434.886 335.257C434.634 335.135 434.349 335.074 434.034 335.074C433.699 335.074 433.406 335.143 433.156 335.283C432.909 335.419 432.717 335.611 432.581 335.858C432.447 336.105 432.381 336.395 432.381 336.727H431.375C431.375 336.216 431.493 335.767 431.729 335.381C431.964 334.994 432.286 334.693 432.692 334.477C433.101 334.261 433.56 334.153 434.068 334.153C434.58 334.153 435.033 334.261 435.428 334.477C435.822 334.693 436.132 334.984 436.357 335.351C436.581 335.717 436.693 336.125 436.693 336.574C436.693 336.895 436.635 337.209 436.518 337.516C436.405 337.82 436.206 338.159 435.922 338.534C435.641 338.906 435.25 339.361 434.75 339.898L432.79 341.994V342.062H436.847V343H431.341ZM438.607 343V342.233L441.487 339.08C441.825 338.71 442.104 338.389 442.322 338.116C442.541 337.841 442.703 337.582 442.808 337.341C442.916 337.097 442.97 336.841 442.97 336.574C442.97 336.267 442.896 336.001 442.749 335.777C442.604 335.553 442.405 335.379 442.152 335.257C441.899 335.135 441.615 335.074 441.3 335.074C440.964 335.074 440.672 335.143 440.422 335.283C440.175 335.419 439.983 335.611 439.847 335.858C439.713 336.105 439.646 336.395 439.646 336.727H438.641C438.641 336.216 438.759 335.767 438.994 335.381C439.23 334.994 439.551 334.693 439.957 334.477C440.366 334.261 440.825 334.153 441.334 334.153C441.845 334.153 442.298 334.261 442.693 334.477C443.088 334.693 443.398 334.984 443.622 335.351C443.847 335.717 443.959 336.125 443.959 336.574C443.959 336.895 443.901 337.209 443.784 337.516C443.67 337.82 443.472 338.159 443.188 338.534C442.906 338.906 442.516 339.361 442.016 339.898L440.055 341.994V342.062H444.112V343H438.607Z" fill="#6B7280"/>
<path d="M512.057 343V334.273H517.29V335.21H513.114V338.159H516.898V339.097H513.114V343H512.057ZM521.227 343.136C520.597 343.136 520.053 342.997 519.595 342.719C519.141 342.438 518.79 342.045 518.543 341.543C518.298 341.037 518.176 340.449 518.176 339.778C518.176 339.108 518.298 338.517 518.543 338.006C518.79 337.491 519.134 337.091 519.574 336.804C520.017 336.514 520.534 336.369 521.125 336.369C521.466 336.369 521.803 336.426 522.135 336.54C522.467 336.653 522.77 336.838 523.043 337.094C523.315 337.347 523.533 337.682 523.695 338.099C523.857 338.517 523.938 339.031 523.938 339.642V340.068H518.892V339.199H522.915C522.915 338.83 522.841 338.5 522.693 338.21C522.548 337.92 522.341 337.692 522.071 337.524C521.804 337.357 521.489 337.273 521.125 337.273C520.724 337.273 520.378 337.372 520.085 337.571C519.795 337.767 519.572 338.023 519.416 338.338C519.26 338.653 519.182 338.991 519.182 339.352V339.932C519.182 340.426 519.267 340.845 519.438 341.189C519.611 341.53 519.851 341.79 520.158 341.969C520.464 342.145 520.821 342.233 521.227 342.233C521.491 342.233 521.73 342.196 521.943 342.122C522.159 342.045 522.345 341.932 522.501 341.781C522.658 341.628 522.778 341.437 522.864 341.21L523.835 341.483C523.733 341.812 523.561 342.102 523.32 342.352C523.078 342.599 522.78 342.793 522.425 342.932C522.07 343.068 521.67 343.136 521.227 343.136ZM525.604 343V334.273H526.609V337.494H526.695C526.768 337.381 526.871 337.236 527.001 337.06C527.135 336.881 527.325 336.722 527.572 336.582C527.822 336.44 528.161 336.369 528.587 336.369C529.138 336.369 529.624 336.507 530.044 336.783C530.464 337.058 530.793 337.449 531.028 337.955C531.264 338.46 531.382 339.057 531.382 339.744C531.382 340.438 531.264 341.038 531.028 341.547C530.793 342.053 530.466 342.445 530.048 342.723C529.631 342.999 529.149 343.136 528.604 343.136C528.183 343.136 527.847 343.067 527.594 342.928C527.341 342.786 527.146 342.625 527.01 342.446C526.874 342.264 526.768 342.114 526.695 341.994H526.575V343H525.604ZM526.592 339.727C526.592 340.222 526.665 340.658 526.81 341.036C526.955 341.411 527.166 341.705 527.445 341.918C527.723 342.128 528.064 342.233 528.467 342.233C528.888 342.233 529.239 342.122 529.52 341.901C529.804 341.676 530.017 341.375 530.159 340.997C530.304 340.616 530.376 340.193 530.376 339.727C530.376 339.267 530.305 338.852 530.163 338.483C530.024 338.111 529.813 337.817 529.528 337.601C529.247 337.382 528.893 337.273 528.467 337.273C528.058 337.273 527.714 337.376 527.436 337.584C527.158 337.788 526.947 338.075 526.805 338.445C526.663 338.811 526.592 339.239 526.592 339.727ZM536.278 343V342.233L539.159 339.08C539.497 338.71 539.776 338.389 539.994 338.116C540.213 337.841 540.375 337.582 540.48 337.341C540.588 337.097 540.642 336.841 540.642 336.574C540.642 336.267 540.568 336.001 540.42 335.777C540.276 335.553 540.077 335.379 539.824 335.257C539.571 335.135 539.287 335.074 538.972 335.074C538.636 335.074 538.344 335.143 538.094 335.283C537.847 335.419 537.655 335.611 537.518 335.858C537.385 336.105 537.318 336.395 537.318 336.727H536.312C536.312 336.216 536.43 335.767 536.666 335.381C536.902 334.994 537.223 334.693 537.629 334.477C538.038 334.261 538.497 334.153 539.006 334.153C539.517 334.153 539.97 334.261 540.365 334.477C540.76 334.693 541.07 334.984 541.294 335.351C541.518 335.717 541.631 336.125 541.631 336.574C541.631 336.895 541.572 337.209 541.456 337.516C541.342 337.82 541.143 338.159 540.859 338.534C540.578 338.906 540.188 339.361 539.688 339.898L537.727 341.994V342.062H541.784V343H536.278ZM546.391 343.119C545.749 343.119 545.202 342.945 544.75 342.595C544.298 342.243 543.953 341.733 543.714 341.065C543.476 340.395 543.357 339.585 543.357 338.636C543.357 337.693 543.476 336.888 543.714 336.22C543.956 335.55 544.303 335.038 544.754 334.686C545.209 334.331 545.754 334.153 546.391 334.153C547.027 334.153 547.571 334.331 548.023 334.686C548.477 335.038 548.824 335.55 549.062 336.22C549.304 336.888 549.425 337.693 549.425 338.636C549.425 339.585 549.305 340.395 549.067 341.065C548.828 341.733 548.483 342.243 548.031 342.595C547.58 342.945 547.033 343.119 546.391 343.119ZM546.391 342.182C547.027 342.182 547.521 341.875 547.874 341.261C548.226 340.648 548.402 339.773 548.402 338.636C548.402 337.881 548.321 337.237 548.159 336.706C548 336.175 547.77 335.77 547.469 335.491C547.17 335.213 546.811 335.074 546.391 335.074C545.76 335.074 545.267 335.385 544.912 336.007C544.557 336.626 544.379 337.503 544.379 338.636C544.379 339.392 544.459 340.034 544.618 340.562C544.777 341.091 545.006 341.493 545.304 341.768C545.605 342.044 545.967 342.182 546.391 342.182ZM551.044 343V342.233L553.925 339.08C554.263 338.71 554.541 338.389 554.76 338.116C554.979 337.841 555.141 337.582 555.246 337.341C555.354 337.097 555.408 336.841 555.408 336.574C555.408 336.267 555.334 336.001 555.186 335.777C555.041 335.553 554.842 335.379 554.589 335.257C554.337 335.135 554.053 335.074 553.737 335.074C553.402 335.074 553.109 335.143 552.859 335.283C552.612 335.419 552.42 335.611 552.284 335.858C552.151 336.105 552.084 336.395 552.084 336.727H551.078C551.078 336.216 551.196 335.767 551.432 335.381C551.668 334.994 551.989 334.693 552.395 334.477C552.804 334.261 553.263 334.153 553.771 334.153C554.283 334.153 554.736 334.261 555.131 334.477C555.526 334.693 555.835 334.984 556.06 335.351C556.284 335.717 556.396 336.125 556.396 336.574C556.396 336.895 556.338 337.209 556.222 337.516C556.108 337.82 555.909 338.159 555.625 338.534C555.344 338.906 554.953 339.361 554.453 339.898L552.493 341.994V342.062H556.55V343H551.044ZM558.31 343V342.233L561.19 339.08C561.528 338.71 561.807 338.389 562.026 338.116C562.244 337.841 562.406 337.582 562.511 337.341C562.619 337.097 562.673 336.841 562.673 336.574C562.673 336.267 562.599 336.001 562.452 335.777C562.307 335.553 562.108 335.379 561.855 335.257C561.602 335.135 561.318 335.074 561.003 335.074C560.668 335.074 560.375 335.143 560.125 335.283C559.878 335.419 559.686 335.611 559.55 335.858C559.416 336.105 559.349 336.395 559.349 336.727H558.344C558.344 336.216 558.462 335.767 558.697 335.381C558.933 334.994 559.254 334.693 559.661 334.477C560.07 334.261 560.528 334.153 561.037 334.153C561.548 334.153 562.001 334.261 562.396 334.477C562.791 334.693 563.101 334.984 563.325 335.351C563.55 335.717 563.662 336.125 563.662 336.574C563.662 336.895 563.604 337.209 563.487 337.516C563.374 337.82 563.175 338.159 562.891 338.534C562.609 338.906 562.219 339.361 561.719 339.898L559.759 341.994V342.062H563.815V343H558.31Z" fill="#6B7280"/>
<path d="M632.057 334.273H633.318L636.284 341.517H636.386L639.352 334.273H640.614V343H639.625V336.369H639.54L636.812 343H635.858L633.131 336.369H633.045V343H632.057V334.273ZM644.522 343.153C644.108 343.153 643.731 343.075 643.393 342.919C643.055 342.76 642.787 342.531 642.588 342.233C642.389 341.932 642.289 341.568 642.289 341.142C642.289 340.767 642.363 340.463 642.511 340.23C642.659 339.994 642.856 339.81 643.103 339.676C643.35 339.543 643.623 339.443 643.922 339.378C644.223 339.31 644.525 339.256 644.829 339.216C645.227 339.165 645.549 339.126 645.797 339.101C646.047 339.072 646.228 339.026 646.342 338.96C646.458 338.895 646.517 338.781 646.517 338.619V338.585C646.517 338.165 646.402 337.838 646.172 337.605C645.944 337.372 645.599 337.256 645.136 337.256C644.656 337.256 644.279 337.361 644.007 337.571C643.734 337.781 643.542 338.006 643.431 338.244L642.477 337.903C642.647 337.506 642.875 337.196 643.159 336.974C643.446 336.75 643.758 336.594 644.096 336.506C644.437 336.415 644.772 336.369 645.102 336.369C645.312 336.369 645.554 336.395 645.826 336.446C646.102 336.494 646.368 336.595 646.623 336.749C646.882 336.902 647.096 337.134 647.267 337.443C647.437 337.753 647.522 338.168 647.522 338.688V343H646.517V342.114H646.466C646.397 342.256 646.284 342.408 646.125 342.57C645.966 342.732 645.754 342.869 645.49 342.983C645.225 343.097 644.903 343.153 644.522 343.153ZM644.676 342.25C645.074 342.25 645.409 342.172 645.681 342.016C645.957 341.859 646.164 341.658 646.304 341.411C646.446 341.163 646.517 340.903 646.517 340.631V339.71C646.474 339.761 646.38 339.808 646.235 339.851C646.093 339.891 645.929 339.926 645.741 339.957C645.556 339.986 645.376 340.011 645.2 340.034C645.027 340.054 644.886 340.071 644.778 340.085C644.517 340.119 644.272 340.175 644.045 340.251C643.821 340.325 643.639 340.437 643.5 340.588C643.363 340.736 643.295 340.937 643.295 341.193C643.295 341.543 643.424 341.807 643.683 341.986C643.944 342.162 644.275 342.25 644.676 342.25ZM649.358 343V336.455H650.33V337.443H650.398C650.517 337.119 650.733 336.857 651.045 336.655C651.358 336.453 651.71 336.352 652.102 336.352C652.176 336.352 652.268 336.354 652.379 336.357C652.49 336.359 652.574 336.364 652.631 336.369V337.392C652.597 337.384 652.518 337.371 652.396 337.354C652.277 337.334 652.151 337.324 652.017 337.324C651.699 337.324 651.415 337.391 651.165 337.524C650.918 337.655 650.722 337.837 650.577 338.07C650.435 338.3 650.364 338.562 650.364 338.858V343H649.358ZM657.181 343V342.233L660.061 339.08C660.4 338.71 660.678 338.389 660.897 338.116C661.115 337.841 661.277 337.582 661.382 337.341C661.49 337.097 661.544 336.841 661.544 336.574C661.544 336.267 661.471 336.001 661.323 335.777C661.178 335.553 660.979 335.379 660.726 335.257C660.473 335.135 660.189 335.074 659.874 335.074C659.539 335.074 659.246 335.143 658.996 335.283C658.749 335.419 658.557 335.611 658.421 335.858C658.287 336.105 658.221 336.395 658.221 336.727H657.215C657.215 336.216 657.333 335.767 657.569 335.381C657.804 334.994 658.125 334.693 658.532 334.477C658.941 334.261 659.4 334.153 659.908 334.153C660.419 334.153 660.873 334.261 661.267 334.477C661.662 334.693 661.972 334.984 662.196 335.351C662.421 335.717 662.533 336.125 662.533 336.574C662.533 336.895 662.475 337.209 662.358 337.516C662.245 337.82 662.046 338.159 661.762 338.534C661.48 338.906 661.09 339.361 660.59 339.898L658.63 341.994V342.062H662.686V343H657.181ZM667.293 343.119C666.651 343.119 666.104 342.945 665.652 342.595C665.201 342.243 664.855 341.733 664.617 341.065C664.378 340.395 664.259 339.585 664.259 338.636C664.259 337.693 664.378 336.888 664.617 336.22C664.858 335.55 665.205 335.038 665.657 334.686C666.111 334.331 666.657 334.153 667.293 334.153C667.929 334.153 668.473 334.331 668.925 334.686C669.38 335.038 669.726 335.55 669.965 336.22C670.206 336.888 670.327 337.693 670.327 338.636C670.327 339.585 670.208 340.395 669.969 341.065C669.73 341.733 669.385 342.243 668.934 342.595C668.482 342.945 667.935 343.119 667.293 343.119ZM667.293 342.182C667.929 342.182 668.424 341.875 668.776 341.261C669.128 340.648 669.304 339.773 669.304 338.636C669.304 337.881 669.223 337.237 669.061 336.706C668.902 336.175 668.672 335.77 668.371 335.491C668.073 335.213 667.713 335.074 667.293 335.074C666.662 335.074 666.169 335.385 665.814 336.007C665.459 336.626 665.282 337.503 665.282 338.636C665.282 339.392 665.361 340.034 665.52 340.562C665.679 341.091 665.908 341.493 666.206 341.768C666.507 342.044 666.87 342.182 667.293 342.182ZM671.946 343V342.233L674.827 339.08C675.165 338.71 675.444 338.389 675.662 338.116C675.881 337.841 676.043 337.582 676.148 337.341C676.256 337.097 676.31 336.841 676.31 336.574C676.31 336.267 676.236 336.001 676.088 335.777C675.944 335.553 675.745 335.379 675.492 335.257C675.239 335.135 674.955 335.074 674.64 335.074C674.304 335.074 674.012 335.143 673.762 335.283C673.515 335.419 673.323 335.611 673.186 335.858C673.053 336.105 672.986 336.395 672.986 336.727H671.98C671.98 336.216 672.098 335.767 672.334 335.381C672.57 334.994 672.891 334.693 673.297 334.477C673.706 334.261 674.165 334.153 674.674 334.153C675.185 334.153 675.638 334.261 676.033 334.477C676.428 334.693 676.738 334.984 676.962 335.351C677.186 335.717 677.299 336.125 677.299 336.574C677.299 336.895 677.24 337.209 677.124 337.516C677.01 337.82 676.811 338.159 676.527 338.534C676.246 338.906 675.855 339.361 675.355 339.898L673.395 341.994V342.062H677.452V343H671.946ZM679.212 343V342.233L682.093 339.08C682.431 338.71 682.709 338.389 682.928 338.116C683.147 337.841 683.309 337.582 683.414 337.341C683.522 337.097 683.576 336.841 683.576 336.574C683.576 336.267 683.502 336.001 683.354 335.777C683.209 335.553 683.01 335.379 682.757 335.257C682.505 335.135 682.221 335.074 681.905 335.074C681.57 335.074 681.277 335.143 681.027 335.283C680.78 335.419 680.588 335.611 680.452 335.858C680.319 336.105 680.252 336.395 680.252 336.727H679.246C679.246 336.216 679.364 335.767 679.6 335.381C679.836 334.994 680.157 334.693 680.563 334.477C680.972 334.261 681.431 334.153 681.939 334.153C682.451 334.153 682.904 334.261 683.299 334.477C683.694 334.693 684.003 334.984 684.228 335.351C684.452 335.717 684.564 336.125 684.564 336.574C684.564 336.895 684.506 337.209 684.39 337.516C684.276 337.82 684.077 338.159 683.793 338.534C683.512 338.906 683.121 339.361 682.621 339.898L680.661 341.994V342.062H684.718V343H679.212Z" fill="#6B7280"/>
<defs>
<filter id="filter0_f_564_12425" x="17.9995" y="189.979" width="677.001" height="106.6" filterUnits="userSpaceOnUse" color-interpolation-filters="sRGB">
<feFlood flood-opacity="0" result="BackgroundImageFix"/>
<feBlend mode="normal" in="SourceGraphic" in2="BackgroundImageFix" result="shape"/>
<feGaussianBlur stdDeviation="7" result="effect1_foregroundBlur_564_12425"/>
</filter>
<filter id="filter1_f_564_12425" x="17.9995" y="165.999" width="677.001" height="92.0015" filterUnits="userSpaceOnUse" color-interpolation-filters="sRGB">
<feFlood flood-opacity="0" result="BackgroundImageFix"/>
<feBlend mode="normal" in="SourceGraphic" in2="BackgroundImageFix" result="shape"/>
<feGaussianBlur stdDeviation="7" result="effect1_foregroundBlur_564_12425"/>
</filter>
<filter id="filter2_d_564_12425" x="404.157" y="166" width="22.0434" height="22" filterUnits="userSpaceOnUse" color-interpolation-filters="sRGB">
<feFlood flood-opacity="0" result="BackgroundImageFix"/>
<feColorMatrix in="SourceAlpha" type="matrix" values="0 0 0 0 0 0 0 0 0 0 0 0 0 0 0 0 0 0 127 0" result="hardAlpha"/>
<feOffset dy="2"/>
<feGaussianBlur stdDeviation="2"/>
<feColorMatrix type="matrix" values="0 0 0 0 0.268354 0 0 0 0 0.268354 0 0 0 0 0.31049 0 0 0 0.15 0"/>
<feBlend mode="normal" in2="BackgroundImageFix" result="effect1_dropShadow_564_12425"/>
<feBlend mode="normal" in="SourceGraphic" in2="effect1_dropShadow_564_12425" result="shape"/>
</filter>
<filter id="filter3_d_564_12425" x="321" y="44" width="186" height="161" filterUnits="userSpaceOnUse" color-interpolation-filters="sRGB">
<feFlood flood-opacity="0" result="BackgroundImageFix"/>
<feColorMatrix in="SourceAlpha" type="matrix" values="0 0 0 0 0 0 0 0 0 0 0 0 0 0 0 0 0 0 127 0" result="hardAlpha"/>
<feOffset dy="10"/>
<feGaussianBlur stdDeviation="16"/>
<feComposite in2="hardAlpha" operator="out"/>
<feColorMatrix type="matrix" values="0 0 0 0 0.121569 0 0 0 0 0.184314 0 0 0 0 0.27451 0 0 0 0.12 0"/>
<feBlend mode="normal" in2="BackgroundImageFix" result="effect1_dropShadow_564_12425"/>
<feBlend mode="normal" in="SourceGraphic" in2="effect1_dropShadow_564_12425" result="shape"/>
</filter>
</defs>
</svg>
