<svg width="353" height="350" viewBox="0 0 353 350" fill="none" xmlns="http://www.w3.org/2000/svg">
<g filter="url(#filter0_d_564_12399)">
<ellipse cx="176.679" cy="174.901" rx="168.321" ry="166.573" fill="#238899"/>
</g>
<g filter="url(#filter1_d_564_12399)">
<path d="M57.6578 292.686C74.7403 309.591 95.2998 322.659 117.939 331.002C140.579 339.345 164.768 342.768 188.863 341.037C212.958 339.306 236.394 332.463 257.579 320.973C278.764 309.482 297.201 293.613 311.638 274.444L176.679 174.901L57.6578 292.686Z" fill="#D32C20"/>
</g>
<g filter="url(#filter2_d_564_12399)">
<path fill-rule="evenodd" clip-rule="evenodd" d="M176.679 341.474C269.64 341.474 345 266.897 345 174.901C345 82.905 269.64 8.32764 176.679 8.32764L176.679 341.474Z" fill="#625ED7"/>
</g>
<g filter="url(#filter3_d_564_12399)">
<path fill-rule="evenodd" clip-rule="evenodd" d="M345 174.901C345 266.897 269.64 341.474 176.679 341.474L176.679 174.901L345 174.901Z" fill="#39B4F3"/>
</g>
<path d="M97.5538 126.073C96.8072 126.073 96.0472 125.973 95.2738 125.773C94.5005 125.559 93.8272 125.246 93.2538 124.833C93.0405 124.699 92.8938 124.539 92.8138 124.353C92.7472 124.153 92.7338 123.973 92.7738 123.813C92.8138 123.639 92.8938 123.493 93.0138 123.373C93.1472 123.253 93.3072 123.186 93.4938 123.173C93.6805 123.146 93.8872 123.199 94.1138 123.333C94.6872 123.679 95.2472 123.933 95.7938 124.093C96.3405 124.239 96.9072 124.313 97.4938 124.313C98.1338 124.313 98.6738 124.219 99.1138 124.033C99.5538 123.846 99.8805 123.573 100.094 123.213C100.321 122.853 100.434 122.419 100.434 121.913C100.434 121.153 100.181 120.586 99.6738 120.213C99.1805 119.826 98.4605 119.633 97.5138 119.633H96.1538C95.8472 119.633 95.6138 119.559 95.4538 119.413C95.2938 119.253 95.2138 119.033 95.2138 118.753C95.2138 118.486 95.2938 118.279 95.4538 118.133C95.6138 117.973 95.8472 117.893 96.1538 117.893H97.3138C97.8872 117.893 98.3738 117.799 98.7738 117.613C99.1738 117.413 99.4805 117.139 99.6938 116.793C99.9205 116.433 100.034 115.999 100.034 115.493C100.034 114.813 99.8072 114.293 99.3538 113.933C98.9138 113.559 98.2672 113.373 97.4138 113.373C96.8672 113.373 96.3472 113.446 95.8538 113.593C95.3738 113.739 94.8738 113.999 94.3538 114.373C94.1538 114.506 93.9605 114.566 93.7738 114.553C93.6005 114.526 93.4472 114.459 93.3138 114.353C93.1938 114.233 93.1072 114.086 93.0538 113.913C93.0138 113.739 93.0272 113.559 93.0938 113.373C93.1605 113.186 93.2938 113.026 93.4938 112.893C94.0538 112.479 94.6872 112.166 95.3938 111.953C96.1005 111.726 96.8272 111.613 97.5738 111.613C98.5072 111.613 99.3072 111.759 99.9738 112.053C100.654 112.346 101.167 112.766 101.514 113.313C101.874 113.859 102.054 114.513 102.054 115.273C102.054 115.846 101.947 116.366 101.734 116.833C101.521 117.299 101.214 117.699 100.814 118.033C100.427 118.353 99.9538 118.579 99.3938 118.713V118.493C100.367 118.653 101.121 119.053 101.654 119.693C102.187 120.319 102.454 121.106 102.454 122.053C102.454 122.879 102.254 123.599 101.854 124.213C101.467 124.813 100.907 125.273 100.174 125.593C99.4405 125.913 98.5672 126.073 97.5538 126.073ZM106.386 125.893C106.026 125.893 105.766 125.813 105.606 125.653C105.446 125.479 105.366 125.246 105.366 124.953C105.366 124.766 105.413 124.586 105.506 124.413C105.599 124.239 105.733 124.059 105.906 123.873L110.166 119.313C110.819 118.619 111.286 117.986 111.566 117.413C111.859 116.826 112.006 116.239 112.006 115.653C112.006 114.906 111.779 114.339 111.326 113.953C110.873 113.566 110.206 113.373 109.326 113.373C108.793 113.373 108.279 113.453 107.786 113.613C107.293 113.773 106.799 114.033 106.306 114.393C106.106 114.526 105.919 114.586 105.746 114.573C105.573 114.559 105.419 114.493 105.286 114.373C105.166 114.253 105.086 114.106 105.046 113.933C105.006 113.759 105.013 113.579 105.066 113.393C105.119 113.206 105.246 113.046 105.446 112.913C105.993 112.499 106.626 112.179 107.346 111.953C108.066 111.726 108.799 111.613 109.546 111.613C110.519 111.613 111.339 111.766 112.006 112.073C112.686 112.366 113.199 112.799 113.546 113.373C113.893 113.946 114.066 114.646 114.066 115.473C114.066 116.033 113.973 116.579 113.786 117.113C113.613 117.646 113.339 118.193 112.966 118.753C112.606 119.299 112.133 119.879 111.546 120.493L107.506 124.733V124.153H113.866C114.159 124.153 114.386 124.226 114.546 124.373C114.706 124.519 114.786 124.733 114.786 125.013C114.786 125.293 114.706 125.513 114.546 125.673C114.386 125.819 114.159 125.893 113.866 125.893H106.386ZM122.018 125.833C121.912 126.033 121.772 126.166 121.598 126.233C121.438 126.299 121.278 126.313 121.118 126.273C120.958 126.233 120.825 126.153 120.718 126.033C120.612 125.913 120.545 125.766 120.518 125.593C120.505 125.419 120.552 125.233 120.658 125.033L128.218 111.893C128.325 111.679 128.458 111.539 128.618 111.473C128.792 111.406 128.952 111.393 129.098 111.433C129.258 111.473 129.392 111.553 129.498 111.673C129.618 111.793 129.692 111.939 129.718 112.113C129.745 112.286 129.698 112.473 129.578 112.673L122.018 125.833ZM120.238 120.233C119.145 120.233 118.292 119.853 117.678 119.093C117.065 118.319 116.758 117.259 116.758 115.913C116.758 115.006 116.898 114.233 117.178 113.593C117.458 112.953 117.858 112.466 118.378 112.133C118.898 111.786 119.518 111.613 120.238 111.613C121.318 111.613 122.165 111.993 122.778 112.753C123.405 113.513 123.718 114.566 123.718 115.913C123.718 116.806 123.578 117.579 123.298 118.233C123.032 118.873 122.638 119.366 122.118 119.713C121.598 120.059 120.972 120.233 120.238 120.233ZM120.238 118.813C120.612 118.813 120.932 118.706 121.198 118.493C121.465 118.279 121.665 117.959 121.798 117.533C121.945 117.106 122.018 116.566 122.018 115.913C122.018 114.939 121.858 114.213 121.538 113.733C121.232 113.253 120.798 113.013 120.238 113.013C119.865 113.013 119.545 113.119 119.278 113.333C119.012 113.546 118.805 113.866 118.658 114.293C118.525 114.719 118.458 115.259 118.458 115.913C118.458 116.899 118.612 117.633 118.918 118.113C119.238 118.579 119.678 118.813 120.238 118.813ZM130.018 126.073C128.938 126.073 128.092 125.693 127.478 124.933C126.865 124.173 126.558 123.113 126.558 121.753C126.558 120.859 126.692 120.093 126.958 119.453C127.238 118.813 127.638 118.319 128.158 117.973C128.678 117.626 129.298 117.453 130.018 117.453C131.112 117.453 131.965 117.839 132.578 118.613C133.192 119.373 133.498 120.419 133.498 121.753C133.498 122.659 133.358 123.439 133.078 124.093C132.812 124.733 132.418 125.226 131.898 125.573C131.378 125.906 130.752 126.073 130.018 126.073ZM130.018 124.673C130.392 124.673 130.712 124.566 130.978 124.353C131.245 124.139 131.445 123.819 131.578 123.393C131.725 122.953 131.798 122.406 131.798 121.753C131.798 120.793 131.638 120.073 131.318 119.593C131.012 119.113 130.578 118.873 130.018 118.873C129.658 118.873 129.338 118.979 129.058 119.193C128.792 119.406 128.585 119.726 128.438 120.153C128.305 120.579 128.238 121.113 128.238 121.753C128.238 122.739 128.398 123.473 128.718 123.953C129.038 124.433 129.472 124.673 130.018 124.673Z" fill="#F0F6FF"/>
<path d="M228.054 125.974C227.694 125.974 227.434 125.894 227.274 125.734C227.114 125.561 227.034 125.327 227.034 125.034C227.034 124.847 227.081 124.667 227.174 124.494C227.267 124.321 227.401 124.141 227.574 123.954L231.834 119.394C232.487 118.701 232.954 118.067 233.234 117.494C233.527 116.907 233.674 116.321 233.674 115.734C233.674 114.987 233.447 114.421 232.994 114.034C232.541 113.647 231.874 113.454 230.994 113.454C230.461 113.454 229.947 113.534 229.454 113.694C228.961 113.854 228.467 114.114 227.974 114.474C227.774 114.607 227.587 114.667 227.414 114.654C227.241 114.641 227.087 114.574 226.954 114.454C226.834 114.334 226.754 114.187 226.714 114.014C226.674 113.841 226.681 113.661 226.734 113.474C226.787 113.287 226.914 113.127 227.114 112.994C227.661 112.581 228.294 112.261 229.014 112.034C229.734 111.807 230.467 111.694 231.214 111.694C232.187 111.694 233.007 111.847 233.674 112.154C234.354 112.447 234.867 112.881 235.214 113.454C235.561 114.027 235.734 114.727 235.734 115.554C235.734 116.114 235.641 116.661 235.454 117.194C235.281 117.727 235.007 118.274 234.634 118.834C234.274 119.381 233.801 119.961 233.214 120.574L229.174 124.814V124.234H235.534C235.827 124.234 236.054 124.307 236.214 124.454C236.374 124.601 236.454 124.814 236.454 125.094C236.454 125.374 236.374 125.594 236.214 125.754C236.054 125.901 235.827 125.974 235.534 125.974H228.054ZM243.646 126.154C242.913 126.154 242.173 126.054 241.426 125.854C240.679 125.641 239.999 125.314 239.386 124.874C239.186 124.754 239.053 124.601 238.986 124.414C238.919 124.227 238.906 124.047 238.946 123.874C238.986 123.687 239.066 123.534 239.186 123.414C239.319 123.294 239.479 123.227 239.666 123.214C239.853 123.187 240.053 123.241 240.266 123.374C240.786 123.707 241.319 123.961 241.866 124.134C242.426 124.307 243.006 124.394 243.606 124.394C244.219 124.394 244.746 124.281 245.186 124.054C245.626 123.827 245.959 123.514 246.186 123.114C246.426 122.701 246.546 122.221 246.546 121.674C246.546 120.834 246.299 120.147 245.806 119.614C245.313 119.081 244.626 118.814 243.746 118.814C243.239 118.814 242.766 118.907 242.326 119.094C241.886 119.267 241.466 119.561 241.066 119.974C240.973 120.081 240.846 120.181 240.686 120.274C240.539 120.354 240.373 120.394 240.186 120.394C239.906 120.394 239.693 120.321 239.546 120.174C239.399 120.027 239.326 119.827 239.326 119.574V112.794C239.326 112.501 239.406 112.274 239.566 112.114C239.726 111.954 239.953 111.874 240.246 111.874H246.946C247.239 111.874 247.466 111.947 247.626 112.094C247.786 112.241 247.866 112.454 247.866 112.734C247.866 113.014 247.786 113.234 247.626 113.394C247.466 113.541 247.239 113.614 246.946 113.614H241.346V118.694H240.786C241.146 118.187 241.619 117.794 242.206 117.514C242.806 117.234 243.466 117.094 244.186 117.094C245.079 117.094 245.853 117.281 246.506 117.654C247.159 118.027 247.666 118.554 248.026 119.234C248.386 119.901 248.566 120.681 248.566 121.574C248.566 122.481 248.366 123.281 247.966 123.974C247.566 124.654 246.999 125.187 246.266 125.574C245.533 125.961 244.659 126.154 243.646 126.154ZM255.678 125.914C255.572 126.114 255.432 126.247 255.258 126.314C255.098 126.381 254.938 126.394 254.778 126.354C254.618 126.314 254.485 126.234 254.378 126.114C254.272 125.994 254.205 125.847 254.178 125.674C254.165 125.501 254.212 125.314 254.318 125.114L261.878 111.974C261.985 111.761 262.118 111.621 262.278 111.554C262.452 111.487 262.612 111.474 262.758 111.514C262.918 111.554 263.052 111.634 263.158 111.754C263.278 111.874 263.352 112.021 263.378 112.194C263.405 112.367 263.358 112.554 263.238 112.754L255.678 125.914ZM253.898 120.314C252.805 120.314 251.952 119.934 251.338 119.174C250.725 118.401 250.418 117.341 250.418 115.994C250.418 115.087 250.558 114.314 250.838 113.674C251.118 113.034 251.518 112.547 252.038 112.214C252.558 111.867 253.178 111.694 253.898 111.694C254.978 111.694 255.825 112.074 256.438 112.834C257.065 113.594 257.378 114.647 257.378 115.994C257.378 116.887 257.238 117.661 256.958 118.314C256.692 118.954 256.298 119.447 255.778 119.794C255.258 120.141 254.632 120.314 253.898 120.314ZM253.898 118.894C254.272 118.894 254.592 118.787 254.858 118.574C255.125 118.361 255.325 118.041 255.458 117.614C255.605 117.187 255.678 116.647 255.678 115.994C255.678 115.021 255.518 114.294 255.198 113.814C254.892 113.334 254.458 113.094 253.898 113.094C253.525 113.094 253.205 113.201 252.938 113.414C252.672 113.627 252.465 113.947 252.318 114.374C252.185 114.801 252.118 115.341 252.118 115.994C252.118 116.981 252.272 117.714 252.578 118.194C252.898 118.661 253.338 118.894 253.898 118.894ZM263.678 126.154C262.598 126.154 261.752 125.774 261.138 125.014C260.525 124.254 260.218 123.194 260.218 121.834C260.218 120.941 260.352 120.174 260.618 119.534C260.898 118.894 261.298 118.401 261.818 118.054C262.338 117.707 262.958 117.534 263.678 117.534C264.772 117.534 265.625 117.921 266.238 118.694C266.852 119.454 267.158 120.501 267.158 121.834C267.158 122.741 267.018 123.521 266.738 124.174C266.472 124.814 266.078 125.307 265.558 125.654C265.038 125.987 264.412 126.154 263.678 126.154ZM263.678 124.754C264.052 124.754 264.372 124.647 264.638 124.434C264.905 124.221 265.105 123.901 265.238 123.474C265.385 123.034 265.458 122.487 265.458 121.834C265.458 120.874 265.298 120.154 264.978 119.674C264.672 119.194 264.238 118.954 263.678 118.954C263.318 118.954 262.998 119.061 262.718 119.274C262.452 119.487 262.245 119.807 262.098 120.234C261.965 120.661 261.898 121.194 261.898 121.834C261.898 122.821 262.058 123.554 262.378 124.034C262.698 124.514 263.132 124.754 263.678 124.754Z" fill="#F0F6FF"/>
<path d="M228.054 242.001C227.694 242.001 227.434 241.921 227.274 241.761C227.114 241.588 227.034 241.354 227.034 241.061C227.034 240.874 227.081 240.694 227.174 240.521C227.267 240.348 227.401 240.168 227.574 239.981L231.834 235.421C232.487 234.728 232.954 234.094 233.234 233.521C233.527 232.934 233.674 232.348 233.674 231.761C233.674 231.014 233.447 230.448 232.994 230.061C232.541 229.674 231.874 229.481 230.994 229.481C230.461 229.481 229.947 229.561 229.454 229.721C228.961 229.881 228.467 230.141 227.974 230.501C227.774 230.634 227.587 230.694 227.414 230.681C227.241 230.668 227.087 230.601 226.954 230.481C226.834 230.361 226.754 230.214 226.714 230.041C226.674 229.868 226.681 229.688 226.734 229.501C226.787 229.314 226.914 229.154 227.114 229.021C227.661 228.608 228.294 228.288 229.014 228.061C229.734 227.834 230.467 227.721 231.214 227.721C232.187 227.721 233.007 227.874 233.674 228.181C234.354 228.474 234.867 228.908 235.214 229.481C235.561 230.054 235.734 230.754 235.734 231.581C235.734 232.141 235.641 232.688 235.454 233.221C235.281 233.754 235.007 234.301 234.634 234.861C234.274 235.408 233.801 235.988 233.214 236.601L229.174 240.841V240.261H235.534C235.827 240.261 236.054 240.334 236.214 240.481C236.374 240.628 236.454 240.841 236.454 241.121C236.454 241.401 236.374 241.621 236.214 241.781C236.054 241.928 235.827 242.001 235.534 242.001H228.054ZM243.646 242.181C242.913 242.181 242.173 242.081 241.426 241.881C240.679 241.668 239.999 241.341 239.386 240.901C239.186 240.781 239.053 240.628 238.986 240.441C238.919 240.254 238.906 240.074 238.946 239.901C238.986 239.714 239.066 239.561 239.186 239.441C239.319 239.321 239.479 239.254 239.666 239.241C239.853 239.214 240.053 239.268 240.266 239.401C240.786 239.734 241.319 239.988 241.866 240.161C242.426 240.334 243.006 240.421 243.606 240.421C244.219 240.421 244.746 240.308 245.186 240.081C245.626 239.854 245.959 239.541 246.186 239.141C246.426 238.728 246.546 238.248 246.546 237.701C246.546 236.861 246.299 236.174 245.806 235.641C245.313 235.108 244.626 234.841 243.746 234.841C243.239 234.841 242.766 234.934 242.326 235.121C241.886 235.294 241.466 235.588 241.066 236.001C240.973 236.108 240.846 236.208 240.686 236.301C240.539 236.381 240.373 236.421 240.186 236.421C239.906 236.421 239.693 236.348 239.546 236.201C239.399 236.054 239.326 235.854 239.326 235.601V228.821C239.326 228.528 239.406 228.301 239.566 228.141C239.726 227.981 239.953 227.901 240.246 227.901H246.946C247.239 227.901 247.466 227.974 247.626 228.121C247.786 228.268 247.866 228.481 247.866 228.761C247.866 229.041 247.786 229.261 247.626 229.421C247.466 229.568 247.239 229.641 246.946 229.641H241.346V234.721H240.786C241.146 234.214 241.619 233.821 242.206 233.541C242.806 233.261 243.466 233.121 244.186 233.121C245.079 233.121 245.853 233.308 246.506 233.681C247.159 234.054 247.666 234.581 248.026 235.261C248.386 235.928 248.566 236.708 248.566 237.601C248.566 238.508 248.366 239.308 247.966 240.001C247.566 240.681 246.999 241.214 246.266 241.601C245.533 241.988 244.659 242.181 243.646 242.181ZM255.678 241.941C255.572 242.141 255.432 242.274 255.258 242.341C255.098 242.408 254.938 242.421 254.778 242.381C254.618 242.341 254.485 242.261 254.378 242.141C254.272 242.021 254.205 241.874 254.178 241.701C254.165 241.528 254.212 241.341 254.318 241.141L261.878 228.001C261.985 227.788 262.118 227.648 262.278 227.581C262.452 227.514 262.612 227.501 262.758 227.541C262.918 227.581 263.052 227.661 263.158 227.781C263.278 227.901 263.352 228.048 263.378 228.221C263.405 228.394 263.358 228.581 263.238 228.781L255.678 241.941ZM253.898 236.341C252.805 236.341 251.952 235.961 251.338 235.201C250.725 234.428 250.418 233.368 250.418 232.021C250.418 231.114 250.558 230.341 250.838 229.701C251.118 229.061 251.518 228.574 252.038 228.241C252.558 227.894 253.178 227.721 253.898 227.721C254.978 227.721 255.825 228.101 256.438 228.861C257.065 229.621 257.378 230.674 257.378 232.021C257.378 232.914 257.238 233.688 256.958 234.341C256.692 234.981 256.298 235.474 255.778 235.821C255.258 236.168 254.632 236.341 253.898 236.341ZM253.898 234.921C254.272 234.921 254.592 234.814 254.858 234.601C255.125 234.388 255.325 234.068 255.458 233.641C255.605 233.214 255.678 232.674 255.678 232.021C255.678 231.048 255.518 230.321 255.198 229.841C254.892 229.361 254.458 229.121 253.898 229.121C253.525 229.121 253.205 229.228 252.938 229.441C252.672 229.654 252.465 229.974 252.318 230.401C252.185 230.828 252.118 231.368 252.118 232.021C252.118 233.008 252.272 233.741 252.578 234.221C252.898 234.688 253.338 234.921 253.898 234.921ZM263.678 242.181C262.598 242.181 261.752 241.801 261.138 241.041C260.525 240.281 260.218 239.221 260.218 237.861C260.218 236.968 260.352 236.201 260.618 235.561C260.898 234.921 261.298 234.428 261.818 234.081C262.338 233.734 262.958 233.561 263.678 233.561C264.772 233.561 265.625 233.948 266.238 234.721C266.852 235.481 267.158 236.528 267.158 237.861C267.158 238.768 267.018 239.548 266.738 240.201C266.472 240.841 266.078 241.334 265.558 241.681C265.038 242.014 264.412 242.181 263.678 242.181ZM263.678 240.781C264.052 240.781 264.372 240.674 264.638 240.461C264.905 240.248 265.105 239.928 265.238 239.501C265.385 239.061 265.458 238.514 265.458 237.861C265.458 236.901 265.298 236.181 264.978 235.701C264.672 235.221 264.238 234.981 263.678 234.981C263.318 234.981 262.998 235.088 262.718 235.301C262.452 235.514 262.245 235.834 262.098 236.261C261.965 236.688 261.898 237.221 261.898 237.861C261.898 238.848 262.058 239.581 262.378 240.061C262.698 240.541 263.132 240.781 263.678 240.781Z" fill="#F0F6FF"/>
<path d="M120.432 277.863C120.152 277.863 119.932 277.783 119.772 277.623C119.612 277.463 119.532 277.249 119.532 276.983C119.532 276.703 119.612 276.489 119.772 276.343C119.932 276.196 120.152 276.123 120.432 276.123H122.872V265.483H123.912L120.992 267.343C120.779 267.463 120.579 267.509 120.392 267.483C120.219 267.456 120.065 267.383 119.932 267.263C119.812 267.143 119.725 266.996 119.672 266.823C119.632 266.649 119.645 266.469 119.712 266.283C119.792 266.096 119.932 265.943 120.132 265.823L122.892 264.083C123.119 263.949 123.332 263.843 123.532 263.763C123.745 263.669 123.945 263.623 124.132 263.623C124.359 263.623 124.545 263.689 124.692 263.823C124.852 263.943 124.932 264.149 124.932 264.443V276.123H127.172C127.465 276.123 127.692 276.196 127.852 276.343C128.012 276.489 128.092 276.703 128.092 276.983C128.092 277.263 128.012 277.483 127.852 277.643C127.692 277.789 127.465 277.863 127.172 277.863H120.432ZM135.324 278.043C134.257 278.043 133.337 277.889 132.564 277.583C131.804 277.276 131.217 276.829 130.804 276.243C130.404 275.643 130.204 274.929 130.204 274.103C130.204 273.436 130.337 272.849 130.604 272.343C130.871 271.823 131.244 271.403 131.724 271.083C132.204 270.763 132.757 270.563 133.384 270.483V270.843C132.517 270.656 131.824 270.249 131.304 269.623C130.797 268.983 130.544 268.223 130.544 267.343C130.544 266.556 130.737 265.883 131.124 265.323C131.524 264.749 132.084 264.316 132.804 264.023C133.524 263.729 134.364 263.583 135.324 263.583C136.297 263.583 137.144 263.729 137.864 264.023C138.584 264.316 139.137 264.749 139.524 265.323C139.924 265.883 140.124 266.556 140.124 267.343C140.124 267.929 140.004 268.469 139.764 268.963C139.537 269.443 139.211 269.849 138.784 270.183C138.357 270.503 137.857 270.716 137.284 270.823V270.483C138.231 270.616 138.991 271.009 139.564 271.663C140.151 272.303 140.444 273.116 140.444 274.103C140.444 274.929 140.237 275.643 139.824 276.243C139.424 276.829 138.844 277.276 138.084 277.583C137.324 277.889 136.404 278.043 135.324 278.043ZM135.324 276.403C136.377 276.403 137.171 276.203 137.704 275.803C138.237 275.389 138.504 274.776 138.504 273.963C138.504 273.149 138.237 272.543 137.704 272.143C137.171 271.743 136.377 271.543 135.324 271.543C134.284 271.543 133.491 271.743 132.944 272.143C132.411 272.543 132.144 273.149 132.144 273.963C132.144 274.776 132.411 275.389 132.944 275.803C133.491 276.203 134.284 276.403 135.324 276.403ZM135.324 269.903C135.924 269.903 136.431 269.809 136.844 269.623C137.271 269.423 137.597 269.149 137.824 268.803C138.051 268.443 138.164 268.023 138.164 267.543C138.164 266.823 137.911 266.256 137.404 265.843C136.911 265.429 136.217 265.223 135.324 265.223C134.431 265.223 133.737 265.429 133.244 265.843C132.751 266.256 132.504 266.823 132.504 267.543C132.504 268.276 132.751 268.856 133.244 269.283C133.737 269.696 134.431 269.903 135.324 269.903ZM147.576 277.803C147.47 278.003 147.33 278.136 147.156 278.203C146.996 278.269 146.836 278.283 146.676 278.243C146.516 278.203 146.383 278.123 146.276 278.003C146.17 277.883 146.103 277.736 146.076 277.563C146.063 277.389 146.11 277.203 146.216 277.003L153.776 263.863C153.883 263.649 154.016 263.509 154.176 263.443C154.35 263.376 154.51 263.363 154.656 263.403C154.816 263.443 154.95 263.523 155.056 263.643C155.176 263.763 155.25 263.909 155.276 264.083C155.303 264.256 155.256 264.443 155.136 264.643L147.576 277.803ZM145.796 272.203C144.703 272.203 143.85 271.823 143.236 271.063C142.623 270.289 142.316 269.229 142.316 267.883C142.316 266.976 142.456 266.203 142.736 265.563C143.016 264.923 143.416 264.436 143.936 264.103C144.456 263.756 145.076 263.583 145.796 263.583C146.876 263.583 147.723 263.963 148.336 264.723C148.963 265.483 149.276 266.536 149.276 267.883C149.276 268.776 149.136 269.549 148.856 270.203C148.59 270.843 148.196 271.336 147.676 271.683C147.156 272.029 146.53 272.203 145.796 272.203ZM145.796 270.783C146.17 270.783 146.49 270.676 146.756 270.463C147.023 270.249 147.223 269.929 147.356 269.503C147.503 269.076 147.576 268.536 147.576 267.883C147.576 266.909 147.416 266.183 147.096 265.703C146.79 265.223 146.356 264.983 145.796 264.983C145.423 264.983 145.103 265.089 144.836 265.303C144.57 265.516 144.363 265.836 144.216 266.263C144.083 266.689 144.016 267.229 144.016 267.883C144.016 268.869 144.17 269.603 144.476 270.083C144.796 270.549 145.236 270.783 145.796 270.783ZM155.576 278.043C154.496 278.043 153.65 277.663 153.036 276.903C152.423 276.143 152.116 275.083 152.116 273.723C152.116 272.829 152.25 272.063 152.516 271.423C152.796 270.783 153.196 270.289 153.716 269.943C154.236 269.596 154.856 269.423 155.576 269.423C156.67 269.423 157.523 269.809 158.136 270.583C158.75 271.343 159.056 272.389 159.056 273.723C159.056 274.629 158.916 275.409 158.636 276.063C158.37 276.703 157.976 277.196 157.456 277.543C156.936 277.876 156.31 278.043 155.576 278.043ZM155.576 276.643C155.95 276.643 156.27 276.536 156.536 276.323C156.803 276.109 157.003 275.789 157.136 275.363C157.283 274.923 157.356 274.376 157.356 273.723C157.356 272.763 157.196 272.043 156.876 271.563C156.57 271.083 156.136 270.843 155.576 270.843C155.216 270.843 154.896 270.949 154.616 271.163C154.35 271.376 154.143 271.696 153.996 272.123C153.863 272.549 153.796 273.083 153.796 273.723C153.796 274.709 153.956 275.443 154.276 275.923C154.596 276.403 155.03 276.643 155.576 276.643Z" fill="#F0F6FF"/>
<defs>
<filter id="filter0_d_564_12399" x="0.357788" y="0.327637" width="352.642" height="349.146" filterUnits="userSpaceOnUse" color-interpolation-filters="sRGB">
<feFlood flood-opacity="0" result="BackgroundImageFix"/>
<feColorMatrix in="SourceAlpha" type="matrix" values="0 0 0 0 0 0 0 0 0 0 0 0 0 0 0 0 0 0 127 0" result="hardAlpha"/>
<feOffset/>
<feGaussianBlur stdDeviation="4"/>
<feComposite in2="hardAlpha" operator="out"/>
<feColorMatrix type="matrix" values="0 0 0 0 0 0 0 0 0 0 0 0 0 0 0 0 0 0 0.16 0"/>
<feBlend mode="normal" in2="BackgroundImageFix" result="effect1_dropShadow_564_12399"/>
<feBlend mode="normal" in="SourceGraphic" in2="effect1_dropShadow_564_12399" result="shape"/>
</filter>
<filter id="filter1_d_564_12399" x="49.6579" y="166.901" width="269.98" height="182.573" filterUnits="userSpaceOnUse" color-interpolation-filters="sRGB">
<feFlood flood-opacity="0" result="BackgroundImageFix"/>
<feColorMatrix in="SourceAlpha" type="matrix" values="0 0 0 0 0 0 0 0 0 0 0 0 0 0 0 0 0 0 127 0" result="hardAlpha"/>
<feOffset/>
<feGaussianBlur stdDeviation="4"/>
<feComposite in2="hardAlpha" operator="out"/>
<feColorMatrix type="matrix" values="0 0 0 0 0 0 0 0 0 0 0 0 0 0 0 0 0 0 0.16 0"/>
<feBlend mode="normal" in2="BackgroundImageFix" result="effect1_dropShadow_564_12399"/>
<feBlend mode="normal" in="SourceGraphic" in2="effect1_dropShadow_564_12399" result="shape"/>
</filter>
<filter id="filter2_d_564_12399" x="168.679" y="0.327637" width="184.321" height="349.146" filterUnits="userSpaceOnUse" color-interpolation-filters="sRGB">
<feFlood flood-opacity="0" result="BackgroundImageFix"/>
<feColorMatrix in="SourceAlpha" type="matrix" values="0 0 0 0 0 0 0 0 0 0 0 0 0 0 0 0 0 0 127 0" result="hardAlpha"/>
<feOffset/>
<feGaussianBlur stdDeviation="4"/>
<feComposite in2="hardAlpha" operator="out"/>
<feColorMatrix type="matrix" values="0 0 0 0 0 0 0 0 0 0 0 0 0 0 0 0 0 0 0.16 0"/>
<feBlend mode="normal" in2="BackgroundImageFix" result="effect1_dropShadow_564_12399"/>
<feBlend mode="normal" in="SourceGraphic" in2="effect1_dropShadow_564_12399" result="shape"/>
</filter>
<filter id="filter3_d_564_12399" x="168.679" y="166.901" width="184.321" height="182.573" filterUnits="userSpaceOnUse" color-interpolation-filters="sRGB">
<feFlood flood-opacity="0" result="BackgroundImageFix"/>
<feColorMatrix in="SourceAlpha" type="matrix" values="0 0 0 0 0 0 0 0 0 0 0 0 0 0 0 0 0 0 127 0" result="hardAlpha"/>
<feOffset/>
<feGaussianBlur stdDeviation="4"/>
<feComposite in2="hardAlpha" operator="out"/>
<feColorMatrix type="matrix" values="0 0 0 0 0 0 0 0 0 0 0 0 0 0 0 0 0 0 0.16 0"/>
<feBlend mode="normal" in2="BackgroundImageFix" result="effect1_dropShadow_564_12399"/>
<feBlend mode="normal" in="SourceGraphic" in2="effect1_dropShadow_564_12399" result="shape"/>
</filter>
</defs>
</svg>
