<svg width="277" height="69" viewBox="0 0 277 69" fill="none" xmlns="http://www.w3.org/2000/svg">
<path d="M92.9943 26.5792V23.8182H107.501V26.5792H101.881V42H98.614V26.5792H92.9943ZM114.126 42.2663C112.794 42.2663 111.64 41.9734 110.663 41.3874C109.687 40.8015 108.929 39.9818 108.391 38.9283C107.858 37.8748 107.592 36.6437 107.592 35.2351C107.592 33.8265 107.858 32.5924 108.391 31.533C108.929 30.4736 109.687 29.6509 110.663 29.065C111.64 28.479 112.794 28.1861 114.126 28.1861C115.457 28.1861 116.612 28.479 117.588 29.065C118.565 29.6509 119.319 30.4736 119.852 31.533C120.391 32.5924 120.66 33.8265 120.66 35.2351C120.66 36.6437 120.391 37.8748 119.852 38.9283C119.319 39.9818 118.565 40.8015 117.588 41.3874C116.612 41.9734 115.457 42.2663 114.126 42.2663ZM114.144 39.6918C114.866 39.6918 115.469 39.4935 115.955 39.0969C116.44 38.6945 116.801 38.1559 117.038 37.4812C117.28 36.8065 117.402 36.0548 117.402 35.2262C117.402 34.3917 117.28 33.6371 117.038 32.9624C116.801 32.2817 116.44 31.7402 115.955 31.3377C115.469 30.9353 114.866 30.734 114.144 30.734C113.404 30.734 112.788 30.9353 112.297 31.3377C111.812 31.7402 111.448 32.2817 111.205 32.9624C110.968 33.6371 110.85 34.3917 110.85 35.2262C110.85 36.0548 110.968 36.8065 111.205 37.4812C111.448 38.1559 111.812 38.6945 112.297 39.0969C112.788 39.4935 113.404 39.6918 114.144 39.6918ZM126.317 37.7209L126.308 33.8413H126.823L131.724 28.3636H135.479L129.451 35.0753H128.785L126.317 37.7209ZM123.388 42V23.8182H126.601V42H123.388ZM131.946 42L127.507 35.7944L129.673 33.5305L135.79 42H131.946ZM143.096 42.2663C141.729 42.2663 140.548 41.9822 139.554 41.4141C138.566 40.84 137.805 40.0291 137.273 38.9815C136.74 37.928 136.474 36.6881 136.474 35.2617C136.474 33.859 136.74 32.628 137.273 31.5685C137.811 30.5032 138.563 29.6746 139.528 29.0827C140.492 28.485 141.626 28.1861 142.928 28.1861C143.768 28.1861 144.561 28.3222 145.307 28.5945C146.059 28.8608 146.722 29.2751 147.296 29.8374C147.876 30.3996 148.331 31.1158 148.663 31.9858C148.994 32.8499 149.16 33.8797 149.16 35.0753V36.0607H137.983V33.8945H146.079C146.073 33.279 145.94 32.7315 145.68 32.2521C145.419 31.7668 145.055 31.3851 144.588 31.1069C144.126 30.8287 143.588 30.6896 142.972 30.6896C142.315 30.6896 141.738 30.8494 141.241 31.169C140.744 31.4827 140.356 31.897 140.078 32.4119C139.806 32.9209 139.667 33.4802 139.661 34.0898V35.9808C139.661 36.7739 139.806 37.4545 140.096 38.0227C140.386 38.585 140.791 39.017 141.312 39.3189C141.833 39.6148 142.442 39.7628 143.141 39.7628C143.608 39.7628 144.032 39.6977 144.41 39.5675C144.789 39.4313 145.118 39.2331 145.396 38.9727C145.674 38.7122 145.884 38.3897 146.026 38.005L149.027 38.3423C148.837 39.1354 148.476 39.8279 147.944 40.4197C147.417 41.0057 146.742 41.4614 145.92 41.7869C145.097 42.1065 144.156 42.2663 143.096 42.2663ZM155.093 34.0099V42H151.879V28.3636H154.951V30.6808H155.11C155.424 29.9173 155.924 29.3106 156.611 28.8608C157.303 28.411 158.158 28.1861 159.176 28.1861C160.117 28.1861 160.937 28.3873 161.636 28.7898C162.34 29.1922 162.884 29.7752 163.269 30.5387C163.66 31.3022 163.852 32.2285 163.846 33.3175V42H160.632V33.8146C160.632 32.9032 160.396 32.19 159.922 31.6751C159.455 31.1602 158.806 30.9027 157.978 30.9027C157.416 30.9027 156.916 31.027 156.478 31.2756C156.045 31.5182 155.705 31.8704 155.457 32.332C155.214 32.7937 155.093 33.353 155.093 34.0099ZM169.812 42L164.681 23.8182H168.223L171.499 37.1793H171.668L175.165 23.8182H178.388L181.895 37.1882H182.055L185.331 23.8182H188.873L183.741 42H180.492L176.852 29.2425H176.71L173.061 42H169.812ZM195.66 42.2663C194.293 42.2663 193.112 41.9822 192.118 41.4141C191.129 40.84 190.369 40.0291 189.836 38.9815C189.303 37.928 189.037 36.6881 189.037 35.2617C189.037 33.859 189.303 32.628 189.836 31.5685C190.375 30.5032 191.126 29.6746 192.091 29.0827C193.056 28.485 194.189 28.1861 195.491 28.1861C196.332 28.1861 197.125 28.3222 197.87 28.5945C198.622 28.8608 199.285 29.2751 199.859 29.8374C200.439 30.3996 200.895 31.1158 201.226 31.9858C201.558 32.8499 201.723 33.8797 201.723 35.0753V36.0607H190.546V33.8945H198.643C198.637 33.279 198.504 32.7315 198.243 32.2521C197.983 31.7668 197.619 31.3851 197.151 31.1069C196.69 30.8287 196.151 30.6896 195.536 30.6896C194.879 30.6896 194.302 30.8494 193.804 31.169C193.307 31.4827 192.92 31.897 192.641 32.4119C192.369 32.9209 192.23 33.4802 192.224 34.0898V35.9808C192.224 36.7739 192.369 37.4545 192.659 38.0227C192.949 38.585 193.355 39.017 193.875 39.3189C194.396 39.6148 195.006 39.7628 195.704 39.7628C196.172 39.7628 196.595 39.6977 196.974 39.5675C197.353 39.4313 197.681 39.2331 197.959 38.9727C198.237 38.7122 198.448 38.3897 198.59 38.005L201.59 38.3423C201.401 39.1354 201.04 39.8279 200.507 40.4197C199.98 41.0057 199.306 41.4614 198.483 41.7869C197.66 42.1065 196.719 42.2663 195.66 42.2663ZM204.584 42V23.8182H207.798V30.6186H207.931C208.097 30.2872 208.331 29.935 208.633 29.5621C208.934 29.1834 209.343 28.8608 209.858 28.5945C210.373 28.3222 211.03 28.1861 211.829 28.1861C212.882 28.1861 213.832 28.4554 214.678 28.994C215.531 29.5266 216.205 30.3168 216.703 31.3643C217.206 32.406 217.457 33.6844 217.457 35.1996C217.457 36.697 217.212 37.9695 216.72 39.017C216.229 40.0646 215.56 40.8636 214.714 41.4141C213.868 41.9645 212.909 42.2397 211.838 42.2397C211.056 42.2397 210.408 42.1095 209.893 41.8491C209.378 41.5887 208.964 41.275 208.65 40.908C208.343 40.5352 208.103 40.183 207.931 39.8516H207.745V42H204.584ZM207.736 35.1818C207.736 36.0637 207.86 36.8361 208.109 37.4989C208.363 38.1618 208.727 38.6797 209.201 39.0526C209.68 39.4195 210.26 39.603 210.941 39.603C211.651 39.603 212.246 39.4136 212.725 39.0348C213.205 38.6501 213.566 38.1263 213.808 37.4634C214.057 36.7946 214.181 36.0341 214.181 35.1818C214.181 34.3355 214.06 33.5838 213.817 32.9268C213.575 32.2699 213.214 31.755 212.734 31.3821C212.255 31.0092 211.657 30.8228 210.941 30.8228C210.254 30.8228 209.671 31.0033 209.192 31.3643C208.713 31.7254 208.349 32.2314 208.1 32.8825C207.857 33.5335 207.736 34.3 207.736 35.1818Z" fill="#0B3051"/>
<path opacity="0.6" d="M52.1666 41.9998C52.1666 45.3186 50.5625 48.3186 48 50.3623C45.7916 52.1623 42.875 53.2498 39.6666 53.2498C32.7708 53.2498 27.1666 48.2061 27.1666 41.9998C27.1666 36.8248 31.0833 32.4373 36.375 31.1436C37.8125 34.4061 40.8958 36.9186 44.7083 37.8561C45.75 38.1186 46.8541 38.2498 48 38.2498C49.1458 38.2498 50.25 38.1186 51.2916 37.8561C51.8541 39.1311 52.1666 40.5373 52.1666 41.9998Z" fill="#1E638A"/>
<path d="M60.5 27C60.5 28.4625 60.1875 29.8687 59.625 31.1438C58.1875 34.4062 55.1042 36.9188 51.2917 37.8563C50.25 38.1187 49.1458 38.25 48 38.25C46.8542 38.25 45.75 38.1187 44.7083 37.8563C40.8958 36.9188 37.8125 34.4062 36.375 31.1438C35.8125 29.8687 35.5 28.4625 35.5 27C35.5 20.7938 41.1042 15.75 48 15.75C54.8958 15.75 60.5 20.7938 60.5 27Z" fill="#1E638A"/>
<path opacity="0.4" d="M68.8333 41.9998C68.8333 48.2061 63.2292 53.2498 56.3333 53.2498C53.125 53.2498 50.2083 52.1623 48 50.3623C50.5625 48.3186 52.1667 45.3186 52.1667 41.9998C52.1667 40.5373 51.8542 39.1311 51.2917 37.8561C55.1042 36.9186 58.1875 34.4061 59.625 31.1436C64.9167 32.4373 68.8333 36.8248 68.8333 41.9998Z" fill="#1E638A"/>
</svg>
