<svg width="17" height="16" viewBox="0 0 17 16" fill="none" xmlns="http://www.w3.org/2000/svg">
<path d="M8.55586 1.9C9.72311 1.9 10.669 2.84 10.669 4C10.669 5.16 9.72311 6.1 8.55586 6.1C7.38861 6.1 6.44273 5.16 6.44273 4C6.44273 2.84 7.38861 1.9 8.55586 1.9ZM8.55586 10.9C11.5444 10.9 14.694 12.36 14.694 13V14.1H2.41773V13C2.41773 12.36 5.5673 10.9 8.55586 10.9ZM8.55586 0C6.33205 0 4.53086 1.79 4.53086 4C4.53086 6.21 6.33205 8 8.55586 8C10.7797 8 12.5809 6.21 12.5809 4C12.5809 1.79 10.7797 0 8.55586 0ZM8.55586 9C5.86917 9 0.505859 10.34 0.505859 13V16H16.6059V13C16.6059 10.34 11.2425 9 8.55586 9Z" fill="#4B4B4B"/>
</svg>
