<svg width="391" height="391" viewBox="0 0 391 391" fill="none" xmlns="http://www.w3.org/2000/svg">
<path d="M195.22 57C177.098 57 159.153 60.5695 142.41 67.5046C125.667 74.4398 110.454 84.6048 97.6393 97.4193C84.8248 110.234 74.6598 125.447 67.7247 142.19C60.7895 158.933 57.22 176.878 57.22 195C57.22 213.122 60.7895 231.067 67.7247 247.81C74.6598 264.553 84.8248 279.766 97.6393 292.581C110.454 305.395 125.667 315.56 142.41 322.495C159.153 329.431 177.098 333 195.22 333L195.22 275.699C184.623 275.699 174.129 273.612 164.338 269.556C154.547 265.501 145.651 259.556 138.157 252.063C130.664 244.569 124.719 235.673 120.664 225.882C116.608 216.091 114.521 205.598 114.521 195C114.521 184.402 116.608 173.909 120.664 164.118C124.719 154.327 130.664 145.431 138.157 137.937C145.651 130.444 154.547 124.499 164.338 120.444C174.129 116.388 184.623 114.301 195.22 114.301V57Z" fill="#F94144"/>
<path d="M333.22 195C333.22 176.878 329.651 158.933 322.715 142.19C315.78 125.447 305.615 110.234 292.801 97.4193L252.283 137.937C259.776 145.431 265.721 154.327 269.776 164.118C273.832 173.909 275.919 184.402 275.919 195L333.22 195Z" fill="#F8961E"/>
<path d="M292.665 97.5549C279.854 84.7438 264.645 74.5814 247.906 67.6481C231.168 60.7148 213.228 57.1462 195.11 57.1462L195.11 114.432C205.705 114.432 216.196 116.519 225.984 120.573C235.772 124.628 244.666 130.571 252.158 138.062L292.665 97.5549Z" fill="#2D9CDB"/>
<path d="M195.22 333C213.342 333 231.287 329.431 248.03 322.495C264.773 315.56 279.986 305.395 292.801 292.581C305.615 279.766 315.78 264.553 322.715 247.81C329.65 231.067 333.22 213.122 333.22 195L275.919 195C275.919 205.598 273.832 216.091 269.776 225.882C265.721 235.673 259.776 244.569 252.283 252.063C244.789 259.556 235.893 265.501 226.102 269.556C216.311 273.612 205.818 275.699 195.22 275.699L195.22 333Z" fill="#F9C74F"/>
<path d="M195.22 333C230.417 333 264.284 319.551 289.892 295.405L250.582 253.714C235.607 267.834 215.802 275.699 195.22 275.699L195.22 333Z" fill="#90BE6D"/>
</svg>
